<svg width="301" height="200" viewBox="0 0 301 200" fill="none" xmlns="http://www.w3.org/2000/svg">
<g clip-path="url(#clip0_289_628)">
<path d="M152.477 55.9893C149.802 51.5651 146.633 46.8415 141.669 45.3969C135.92 43.7239 130.015 47.0473 125.006 50.3268C110.026 60.1346 95.5997 70.7635 81.7937 82.1648L81.8088 82.3366C92.5573 81.5953 103.306 80.8541 114.054 80.1129C121.82 79.5774 129.853 78.9679 136.715 75.2942C139.32 73.9002 141.858 72.0381 144.809 71.9083C148.475 71.7471 151.672 74.3077 154.185 76.9829C169.045 92.8075 173.346 117.007 190.018 130.91C179.505 104.983 166.952 79.9312 152.477 55.9893Z" fill="#F2F2F2"/>
<path d="M249.835 193.256C248.192 191.181 247.52 190.695 245.899 188.601C232.7 171.53 220.294 153.882 208.681 135.658C200.793 123.281 193.297 110.666 186.191 97.8134C182.808 91.7031 179.518 85.5449 176.32 79.3387C173.839 74.5266 171.414 69.6858 169.043 64.8161C168.365 63.4252 167.707 62.0279 167.051 60.6275C165.507 57.3341 163.991 54.0248 162.364 50.7763C160.509 47.0737 158.252 43.192 154.847 40.7044C153.297 39.5259 151.444 38.8128 149.504 38.6485C146.731 38.4694 144.174 39.6141 141.769 40.8643C124.177 50.0377 107.707 61.5388 92.8105 74.6258C77.8755 87.7422 64.5262 102.561 53.0345 118.779C52.6829 119.281 51.8516 118.801 52.2064 118.296C53.6037 116.32 55.0287 114.365 56.4814 112.432C74.5445 88.4085 96.6926 67.7497 121.913 51.3998C126.156 48.65 130.479 46.0292 134.882 43.5373C137.101 42.2807 139.33 41.0401 141.596 39.8763C143.819 38.7348 146.178 37.7084 148.717 37.6701C157.357 37.5358 161.83 47.3199 164.902 53.9033C165.868 55.9753 166.845 58.0408 167.834 60.0999C171.572 67.9176 175.454 75.6638 179.479 83.3387C181.964 88.0773 184.503 92.7881 187.096 97.4713C195.166 112.055 203.743 126.343 212.828 140.336C224.864 158.871 236.803 175.245 250.513 192.578C250.89 193.058 250.216 193.742 249.835 193.256Z" fill="#6A767F"/>
<path d="M85.9458 66.7496C85.4438 66.1901 84.945 65.6305 84.4398 65.071C80.4558 60.665 76.181 56.3101 70.7101 53.7841C68.1016 52.5417 65.254 51.8816 62.3648 51.8497C59.3785 51.8593 56.4593 52.6426 53.7 53.7394C52.3954 54.2606 51.1196 54.8521 49.8631 55.4819C48.4274 56.2046 47.0173 56.9752 45.6137 57.7521C42.979 59.2101 40.3784 60.7321 37.812 62.318C32.7057 65.4739 27.7593 68.8706 22.9728 72.5082C20.4915 74.3946 18.0615 76.3429 15.6826 78.3531C13.47 80.2203 11.3022 82.1377 9.17912 84.1052C8.72511 84.524 8.04722 83.8462 8.50123 83.4273C9.06077 82.9062 9.62673 82.3882 10.1927 81.8766C11.7914 80.4314 13.4157 79.0138 15.0656 77.624C18.0743 75.0853 21.1608 72.6446 24.3253 70.302C29.2462 66.6569 34.3364 63.2591 39.5961 60.1086C42.2244 58.5355 44.8889 57.0284 47.5896 55.5875C48.405 55.1526 49.23 54.7274 50.0645 54.3245C51.958 53.3694 53.9254 52.5685 55.9477 51.9296C58.8123 51.0029 61.8431 50.7052 64.8333 51.0567C67.7204 51.4767 70.5021 52.439 73.0315 53.8928C78.4031 56.8952 82.5693 61.5378 86.6236 66.0686C87.033 66.529 86.3582 67.2101 85.9458 66.7496Z" fill="#6A767F"/>
<path d="M196.008 112.408L208.88 107.7L215.271 105.362C217.352 104.601 219.429 103.734 221.58 103.189C223.45 102.655 225.435 102.68 227.291 103.262C228.946 103.875 230.461 104.814 231.745 106.023C233.058 107.232 234.279 108.536 235.399 109.925C236.79 111.597 238.161 113.287 239.538 114.971C245.221 121.921 250.867 128.902 256.476 135.912C262.085 142.923 267.656 149.963 273.19 157.033C278.737 164.121 284.246 171.238 289.717 178.384C290.387 179.26 291.057 180.136 291.726 181.012C292.096 181.496 292.929 181.019 292.554 180.528C287.043 173.309 281.493 166.12 275.905 158.961C270.303 151.784 264.663 144.638 258.983 137.523C253.304 130.407 247.587 123.322 241.831 116.269C240.397 114.511 238.96 112.756 237.522 111.003C236.308 109.523 235.108 108.028 233.777 106.652C231.334 104.125 228.281 101.892 224.627 101.831C222.478 101.795 220.399 102.477 218.403 103.199C216.251 103.978 214.105 104.771 211.955 105.557L198.994 110.298L195.753 111.483C195.178 111.693 195.427 112.62 196.008 112.408L196.008 112.408Z" fill="#6A767F"/>
<path d="M69.0162 59.3281C62.4751 55.9663 54.0982 56.6247 48.0874 60.8248C59.5526 62.8029 70.8924 65.4495 82.0487 68.7512C77.4159 66.0363 73.792 61.7827 69.0162 59.3281Z" fill="#F2F2F2"/>
<path d="M48.0229 60.8132L46.7637 61.8368C47.1896 61.4785 47.6324 61.1427 48.0873 60.8248C48.0658 60.8211 48.0444 60.8169 48.0229 60.8132Z" fill="#F2F2F2"/>
<path d="M231.261 112.455C229.994 110.913 228.624 109.298 226.728 108.671L224.959 108.741C238.428 132.542 256.62 153.338 278.416 169.855C262.698 150.722 246.979 131.588 231.261 112.455Z" fill="#F2F2F2"/>
<path d="M121.232 99.7315C122.05 102.706 123.895 105.296 126.439 107.041C127.423 107.711 128.587 108.354 128.923 109.495C129.1 110.223 128.991 110.991 128.618 111.64C128.246 112.281 127.794 112.872 127.272 113.398L127.224 113.577C124.783 112.13 122.461 110.301 121.113 107.804C119.764 105.308 119.576 102.036 121.232 99.7314" fill="#F2F2F2"/>
<path d="M202.498 170.535C203.317 173.51 205.162 176.099 207.706 177.845C208.689 178.514 209.853 179.157 210.19 180.298C210.367 181.026 210.258 181.794 209.885 182.443C209.513 183.084 209.06 183.675 208.538 184.202L208.491 184.38C206.05 182.934 203.727 181.104 202.379 178.607C201.031 176.111 200.843 172.839 202.498 170.535" fill="#F2F2F2"/>
<path d="M40.3135 165.652C41.1324 168.627 42.9771 171.216 45.5213 172.962C46.5049 173.631 47.6687 174.274 48.0052 175.415C48.1822 176.143 48.0731 176.911 47.7005 177.56C47.3285 178.201 46.8759 178.792 46.3537 179.319L46.3061 179.497C43.8651 178.051 41.5429 176.221 40.1946 173.724C38.8462 171.228 38.658 167.956 40.3136 165.652" fill="#F2F2F2"/>
<path d="M226.948 35.576C236.772 35.576 244.736 27.612 244.736 17.788C244.736 7.96395 236.772 0 226.948 0C217.124 0 209.16 7.96395 209.16 17.788C209.16 27.612 217.124 35.576 226.948 35.576Z" fill="#F4AAA9"/>
<path d="M259.048 4.1401C250.427 2.97484 240.585 7.63446 238.351 16.0418C237.788 14.547 236.764 13.2699 235.428 12.395C234.091 11.5201 232.511 11.0927 230.916 11.1745C229.321 11.2564 227.793 11.8433 226.553 12.8504C225.313 13.8575 224.425 15.2327 224.018 16.7773L225.005 17.4842C243.479 21.4793 262.603 21.3928 281.04 17.2308C275.044 10.9287 267.669 5.30535 259.048 4.1401Z" fill="#F0F0F0"/>
<path d="M222.077 27.8574C213.456 26.6921 203.614 31.3517 201.38 39.7591C200.817 38.2643 199.793 36.9872 198.456 36.1123C197.12 35.2373 195.54 34.8099 193.945 34.8918C192.349 34.9737 190.821 35.5605 189.581 36.5677C188.342 37.5748 187.454 38.95 187.047 40.4946L188.034 41.2015C206.508 45.1966 225.632 45.1101 244.069 40.9481C238.072 34.646 230.698 29.0226 222.077 27.8574Z" fill="#F0F0F0"/>
<path d="M297.319 32.3422C297.283 32.3422 297.248 32.3367 297.214 32.3258C204.993 3.16115 123.713 6.97494 71.7668 15.31C64.6975 16.4439 57.6092 17.7535 50.6989 19.2028C48.9348 19.5724 47.1045 19.9685 45.2591 20.381C43.0552 20.8718 40.8805 21.3773 38.7953 21.8827C37.8948 22.096 37.0118 22.3109 36.1464 22.5275C34.8356 22.8511 33.5055 23.1883 32.0797 23.5589C30.4865 23.9696 28.8678 24.4005 27.2674 24.8396C27.2616 24.8416 27.2556 24.8433 27.2495 24.8447L27.2497 24.845C25.4421 25.3385 23.644 25.8464 21.9052 26.3536C20.9641 26.6254 20.0553 26.8934 19.1849 27.1581C19.0877 27.185 19.0015 27.2109 18.9141 27.2375L18.7271 27.2943C18.6188 27.3274 18.5119 27.3597 18.4049 27.3904L18.3981 27.3924L18.3983 27.3928L18.1152 27.4807C17.7777 27.5829 17.4483 27.6827 17.1244 27.7821C8.56353 30.4212 3.85733 32.2986 3.81083 32.317C3.76832 32.334 3.72286 32.3425 3.67706 32.342C3.63126 32.3415 3.58602 32.3319 3.5439 32.3139C3.50179 32.2959 3.46363 32.2698 3.43162 32.237C3.3996 32.2043 3.37435 32.1655 3.35731 32.123C3.34027 32.0805 3.33177 32.035 3.3323 31.9892C3.33282 31.9434 3.34236 31.8982 3.36038 31.8561C3.37839 31.814 3.40452 31.7758 3.43728 31.7438C3.47003 31.7118 3.50877 31.6865 3.55129 31.6695C3.59812 31.6511 8.32732 29.7641 16.9194 27.1152C17.2445 27.0154 17.5747 26.9156 17.9133 26.8131L18.1762 26.7313C18.1852 26.7279 18.1943 26.7252 18.2035 26.7225C18.3099 26.6922 18.4162 26.6598 18.5241 26.6271L18.7115 26.5702C18.8048 26.542 18.8968 26.514 18.9909 26.4881C19.8554 26.2252 20.7672 25.9564 21.7107 25.6836C23.4502 25.1761 25.25 24.6683 27.059 24.174C27.0646 24.172 27.0704 24.1706 27.076 24.1689V24.1686C28.682 23.7282 30.3067 23.2956 31.905 22.8835C33.333 22.5125 34.6656 22.1747 35.9787 21.8504C36.8477 21.6341 37.7324 21.4187 38.6327 21.2043C40.7203 20.6981 42.8993 20.192 45.1072 19.7001C46.9555 19.2873 48.7888 18.8902 50.5559 18.5203C57.4769 17.0686 64.5762 15.7569 71.6563 14.6213C123.677 6.27432 205.073 2.45438 297.424 31.6609C297.503 31.686 297.571 31.7387 297.615 31.8094C297.659 31.8801 297.676 31.9642 297.664 32.0465C297.651 32.1288 297.609 32.2039 297.546 32.2581C297.483 32.3123 297.402 32.3422 297.319 32.3422Z" fill="#CCCCCC"/>
<path d="M92.2262 146.433C92.1054 146.08 91.9022 145.761 91.6333 145.502C91.534 145.41 91.4266 145.327 91.3124 145.254C90.4021 144.648 89.0418 144.512 88.1768 145.254C88.0897 145.33 88.0092 145.413 87.9362 145.502C87.6781 145.82 87.413 146.13 87.141 146.433C86.6945 146.943 86.2376 147.434 85.7598 147.912C85.6237 148.045 85.4877 148.181 85.3482 148.313C85.268 148.394 85.1878 148.47 85.1076 148.547C84.8006 148.84 84.4867 149.122 84.1693 149.402C84.0019 149.551 83.8345 149.698 83.6636 149.841C83.409 150.054 83.1544 150.267 82.8963 150.472C82.8718 150.49 82.8474 150.507 82.823 150.528C82.816 150.532 82.8125 150.539 82.8056 150.542C82.8021 150.542 82.7986 150.542 82.7951 150.549C82.7857 150.553 82.7773 150.559 82.7707 150.566C82.694 150.619 82.6417 150.654 82.6033 150.685C82.6172 150.678 82.6312 150.668 82.6451 150.661C82.5824 150.709 82.5161 150.758 82.4533 150.807C81.8429 151.257 81.2186 151.69 80.5803 152.094C79.0012 153.105 77.3425 153.985 75.6206 154.727C75.5055 154.773 75.3869 154.822 75.2684 154.867C70.7602 156.714 65.8699 157.435 61.0205 156.967C60.5252 156.928 60.03 156.876 59.5347 156.81C58.9627 156.726 58.3942 156.625 57.8292 156.51C55.6781 156.081 53.5733 155.445 51.5441 154.612C49.0057 153.45 46.5914 152.034 44.3382 150.385C43.9894 150.137 43.6371 149.89 43.2849 149.649C43.686 148.666 44.0801 147.682 44.4638 146.691C44.6556 146.214 44.8404 145.736 45.0218 145.254C46.4483 141.547 47.7877 137.804 49.0712 134.048C50.3687 130.243 51.5929 126.415 52.7439 122.566C52.8625 122.175 52.9776 121.785 53.0892 121.394C53.6926 119.361 54.2716 117.323 54.8261 115.28C54.8784 115.081 54.9343 114.886 54.9831 114.687C55.1435 114.101 55.3005 113.515 55.4539 112.929C55.8027 111.607 55.0145 110.027 53.6263 109.71C52.9579 109.539 52.2492 109.633 51.6493 109.974C51.0494 110.315 50.6053 110.876 50.4105 111.538C50.2605 112.103 50.1106 112.664 49.9571 113.229C49.2212 115.96 48.4469 118.682 47.6342 121.394C47.5156 121.785 47.397 122.175 47.2784 122.566C45.4857 128.474 43.5174 134.324 41.3735 140.113C41.1154 140.814 40.8538 141.513 40.5888 142.21C40.4597 142.551 40.3307 142.893 40.1981 143.235C39.9435 143.908 39.6819 144.581 39.4203 145.254C39.2703 145.649 39.1169 146.043 38.9634 146.433C38.8623 146.681 38.7646 146.929 38.667 147.173C37.6725 146.816 36.6422 146.568 35.5942 146.433L35.4268 146.412C34.6142 146.315 33.7925 146.322 32.9818 146.433C31.7684 146.575 30.6009 146.981 29.5619 147.624C28.5228 148.266 27.6376 149.129 26.9688 150.151C25.3051 152.771 25.326 156.517 27.6593 158.742C30.0625 161.033 33.7003 161.016 36.5289 159.583C38.0279 158.772 39.2919 157.587 40.1981 156.144C40.5453 155.62 40.8643 155.079 41.1538 154.522C41.227 154.57 41.3003 154.619 41.3735 154.672C41.6526 154.867 41.9316 155.066 42.2071 155.261C43.8126 156.424 45.5044 157.463 47.268 158.369C51.0599 160.254 55.1418 161.488 59.3429 162.021C59.4371 162.031 59.5277 162.045 59.6219 162.055C60.0858 162.115 60.5532 162.16 61.0205 162.198C67.7249 162.704 74.4375 161.332 80.4059 158.236C80.9117 157.975 81.4128 157.7 81.9092 157.413C82.68 156.967 83.4334 156.492 84.1693 155.99C84.5704 155.718 84.9611 155.442 85.3482 155.153C87.04 153.907 88.617 152.512 90.0603 150.985C90.6079 150.409 91.1322 149.815 91.6333 149.203C92.1072 148.701 92.3802 148.044 92.4006 147.354C92.3979 147.039 92.3388 146.727 92.2262 146.433ZM34.4711 154.741C34.5443 154.689 34.6176 154.633 34.6873 154.577C34.6664 154.63 34.5653 154.689 34.4711 154.741H34.4711ZM35.5907 153.615C35.5105 153.706 35.4372 153.796 35.357 153.887C35.113 154.16 34.8508 154.416 34.5722 154.654C34.5339 154.689 34.492 154.724 34.4502 154.755C34.4497 154.755 34.4493 154.755 34.4488 154.756C34.4484 154.756 34.448 154.756 34.4477 154.756C34.4474 154.757 34.4471 154.757 34.4469 154.757C34.4468 154.758 34.4467 154.758 34.4467 154.759C34.3963 154.781 34.3474 154.807 34.3002 154.836C34.1502 154.926 33.9967 155.01 33.8398 155.087C33.5325 155.2 33.2164 155.287 32.8946 155.348C32.6474 155.366 32.3992 155.369 32.1517 155.355H32.1447C31.9739 155.317 31.8051 155.271 31.639 155.216C31.5553 155.174 31.475 155.125 31.3948 155.076C31.3634 155.048 31.3355 155.02 31.3181 155.003C31.284 154.972 31.2525 154.938 31.2239 154.902C31.224 154.901 31.2239 154.901 31.2237 154.9C31.2235 154.9 31.2233 154.9 31.2229 154.899C31.2226 154.899 31.2222 154.899 31.2218 154.899C31.2214 154.898 31.2209 154.898 31.2205 154.898C31.1821 154.829 31.1402 154.759 31.1019 154.689C31.0999 154.687 31.0986 154.685 31.0984 154.682C31.0705 154.595 31.0461 154.504 31.0251 154.414C31.0176 154.254 31.0187 154.095 31.0286 153.936C31.0754 153.713 31.1384 153.494 31.217 153.28C31.2876 153.128 31.368 152.982 31.4576 152.841C31.4646 152.827 31.4995 152.771 31.5378 152.708C31.5413 152.704 31.5413 152.705 31.5413 152.701C31.5936 152.642 31.646 152.579 31.7018 152.523C31.7959 152.418 31.8971 152.328 31.9982 152.234C32.195 152.105 32.3987 151.987 32.6086 151.881C32.9416 151.763 33.2833 151.671 33.6306 151.606C34.1427 151.565 34.6574 151.57 35.1687 151.62C35.653 151.704 36.1308 151.822 36.5987 151.972C36.3151 152.522 35.9922 153.052 35.6326 153.556C35.6186 153.576 35.6047 153.597 35.5907 153.615ZM31.7122 152.467C31.6815 152.517 31.6452 152.562 31.6041 152.603C31.6318 152.552 31.6684 152.506 31.7122 152.467Z" fill="#3F3D56"/>
<path d="M81.7419 110.812C81.7105 111.907 81.6791 113.003 81.6477 114.098C81.5814 116.529 81.5128 118.961 81.4419 121.394C81.3687 124.132 81.2919 126.869 81.2117 129.605C81.1734 131.017 81.1338 132.43 81.0931 133.842C80.985 137.648 80.8781 141.452 80.7723 145.255C80.7618 145.649 80.7478 146.039 80.7374 146.433C80.6851 148.32 80.6327 150.207 80.5804 152.094C80.5211 154.142 80.463 156.189 80.406 158.236C80.3642 159.771 80.3212 161.307 80.277 162.844C79.9631 173.98 79.6492 185.117 79.3353 196.254C79.322 196.943 79.0422 197.601 78.5544 198.089C78.0667 198.577 77.409 198.856 76.7194 198.87C76.0273 198.864 75.3652 198.587 74.8758 198.097C74.3865 197.608 74.1091 196.946 74.1035 196.254C74.2779 189.99 74.4546 183.725 74.6337 177.461C74.7906 171.797 74.9499 166.133 75.1115 160.469C75.1638 158.603 75.2161 156.735 75.2685 154.867C75.3487 152.056 75.4277 149.245 75.5056 146.433C75.5161 146.039 75.53 145.649 75.5405 145.255C75.5475 144.909 75.5579 144.567 75.5684 144.222C75.7219 138.764 75.8753 133.304 76.0288 127.843C76.0916 125.695 76.152 123.545 76.2102 121.394C76.2799 118.942 76.3497 116.492 76.4194 114.042C76.4508 112.964 76.4787 111.89 76.5101 110.812C76.5234 110.123 76.8032 109.465 77.291 108.977C77.7787 108.489 78.4364 108.21 79.126 108.196C79.8181 108.202 80.4802 108.479 80.9695 108.969C81.4589 109.458 81.7363 110.12 81.7419 110.812Z" fill="#3F3D56"/>
<path d="M225.241 111.538C222.498 121.925 219.22 132.163 215.419 142.211C214.371 144.982 213.298 147.748 212.151 150.481L212.414 149.856C211.902 151.158 211.249 152.399 210.465 153.557C210.412 153.632 210.357 153.706 210.302 153.779C210.573 153.433 210.625 153.364 210.456 153.574C210.368 153.679 210.28 153.784 210.189 153.886C209.945 154.159 209.683 154.416 209.404 154.654C209.334 154.714 209.263 154.773 209.191 154.83L209.518 154.576C209.48 154.666 209.214 154.785 209.131 154.835C208.862 154.997 208.582 155.139 208.292 155.26L208.917 154.997C208.442 155.188 207.947 155.324 207.441 155.401L208.136 155.308C207.639 155.377 207.136 155.382 206.637 155.324L207.333 155.417C206.925 155.361 206.526 155.254 206.145 155.098L206.77 155.361C206.567 155.273 206.371 155.168 206.185 155.049C206.09 154.987 205.799 154.767 206.179 155.057C206.575 155.359 206.23 155.083 206.149 155.003C206.081 154.936 206.02 154.863 205.954 154.795C205.646 154.48 206.301 155.338 206.092 154.969C205.98 154.784 205.878 154.594 205.786 154.398L206.049 155.023C205.929 154.726 205.844 154.416 205.795 154.099L205.889 154.794C205.839 154.4 205.839 154.001 205.888 153.606L205.794 154.302C205.858 153.862 205.975 153.431 206.141 153.018L205.878 153.643C205.994 153.366 206.131 153.098 206.288 152.841C206.361 152.709 206.446 152.584 206.543 152.468C206.56 152.473 206.1 152.995 206.344 152.732C206.408 152.663 206.467 152.59 206.532 152.522C206.635 152.412 206.746 152.312 206.855 152.209C207.219 151.862 206.345 152.546 206.765 152.271C207.07 152.071 207.391 151.896 207.724 151.748L207.099 152.012C207.658 151.782 208.243 151.625 208.842 151.545L208.146 151.638C208.895 151.552 209.653 151.561 210.4 151.665L209.704 151.571C210.65 151.715 211.575 151.975 212.457 152.345L211.832 152.082C213.712 152.889 215.377 154.087 217.038 155.262C218.644 156.424 220.335 157.463 222.098 158.368C225.89 160.254 229.972 161.489 234.174 162.021C240.199 162.76 246.313 161.973 251.956 159.733C257.598 157.493 262.587 153.873 266.466 149.203C266.939 148.701 267.212 148.043 267.232 147.353C267.227 146.661 266.952 145.997 266.466 145.504C265.506 144.623 263.693 144.374 262.767 145.504C261.888 146.576 260.944 147.593 259.939 148.547C259.47 148.992 258.988 149.424 258.494 149.841C258.212 150.08 257.926 150.314 257.636 150.543C257.499 150.651 257.071 150.94 257.728 150.474C257.577 150.581 257.433 150.697 257.285 150.807C255.088 152.426 252.708 153.78 250.193 154.841L250.818 154.577C248.12 155.709 245.286 156.485 242.387 156.887L243.083 156.793C240.101 157.185 237.081 157.181 234.1 156.78L234.796 156.873C231.816 156.464 228.902 155.67 226.126 154.512L226.751 154.776C224.072 153.591 221.53 152.118 219.17 150.384C217.941 149.474 216.645 148.659 215.294 147.945C213.719 147.14 212.014 146.622 210.258 146.414C206.966 146.027 203.611 147.309 201.801 150.153C200.136 152.771 200.157 156.516 202.49 158.742C204.892 161.034 208.53 161.015 211.361 159.581C214.088 158.2 215.725 155.331 216.877 152.626C219.469 146.538 221.764 140.309 223.902 134.048C226.017 127.855 227.935 121.598 229.656 115.279C229.869 114.497 230.079 113.713 230.286 112.929C230.635 111.607 229.846 110.027 228.459 109.711C227.791 109.539 227.081 109.633 226.481 109.974C225.881 110.315 225.436 110.876 225.241 111.538L225.241 111.538Z" fill="#3F3D56"/>
<path d="M251.342 110.812L250.4 144.223L249.463 177.46L248.934 196.254C248.94 196.946 249.217 197.608 249.707 198.097C250.196 198.586 250.858 198.864 251.55 198.87C252.239 198.856 252.897 198.577 253.385 198.089C253.872 197.601 254.152 196.943 254.166 196.254L255.107 162.843L256.044 129.606L256.573 110.812C256.568 110.12 256.29 109.458 255.801 108.969C255.311 108.479 254.65 108.202 253.958 108.196C253.268 108.209 252.61 108.489 252.123 108.977C251.635 109.465 251.355 110.122 251.342 110.812Z" fill="#3F3D56"/>
<path d="M155.837 175.836C154.815 180.398 152.365 184.515 148.844 187.59C148.586 187.813 148.328 188.029 148.06 188.242C147.407 188.301 146.76 188.362 146.117 188.424C145.583 188.472 145.057 188.525 144.533 188.574L144.439 188.584L144.373 188.012L144.108 185.696C143.08 184.017 142.442 182.129 142.243 180.17C142.044 178.211 142.288 176.233 142.957 174.382C143.878 171.898 145.545 169.704 147.184 167.528C149.448 164.521 151.649 161.55 151.729 157.884C152.843 159.309 153.769 160.872 154.484 162.533C153.809 162.851 153.202 163.298 152.698 163.848C152.555 164.005 152.412 164.225 152.51 164.413C152.594 164.574 152.803 164.612 152.984 164.633C153.42 164.678 153.86 164.724 154.296 164.769C154.645 164.807 154.993 164.842 155.342 164.881C155.764 166.266 156.05 167.688 156.197 169.129C156.432 171.369 156.31 173.633 155.837 175.836Z" fill="#3F3D56"/>
<path d="M167.417 166.694C165.359 168.191 164.156 170.343 163.221 172.714C162.263 173.021 161.401 173.571 160.72 174.312C160.577 174.469 160.434 174.688 160.532 174.877C160.616 175.037 160.825 175.076 161.006 175.096C161.442 175.142 161.882 175.187 162.318 175.232C161.383 178.037 160.525 180.939 158.872 183.307C157.772 184.87 156.339 186.17 154.676 187.112C154.223 187.37 153.754 187.602 153.274 187.806C151.502 187.942 149.764 188.088 148.06 188.242C147.407 188.301 146.76 188.362 146.117 188.424C145.583 188.472 145.057 188.525 144.533 188.573C144.53 188.382 144.53 188.19 144.533 187.998C144.644 182.888 146.524 177.974 149.852 174.095C150.009 173.914 150.17 173.736 150.334 173.558C152.02 171.757 154.003 170.259 156.197 169.129C159.653 167.332 163.527 166.491 167.417 166.694Z" fill="#F4AAA9"/>
<path d="M146.72 186.634L146.319 187.82L146.117 188.424C145.583 188.472 145.057 188.525 144.533 188.574L144.439 188.584C143.86 188.643 143.285 188.703 142.709 188.762C142.559 188.588 142.409 188.41 142.263 188.228C138.622 183.82 136.875 178.149 137.402 172.456C137.93 166.763 140.689 161.51 145.077 157.846C144.617 160.256 145.154 162.565 146.037 164.856C145.942 164.895 145.852 164.933 145.765 164.975C145.089 165.293 144.483 165.739 143.979 166.29C143.836 166.447 143.693 166.666 143.79 166.855C143.874 167.015 144.083 167.054 144.265 167.074C144.701 167.12 145.14 167.165 145.576 167.211C145.925 167.249 146.274 167.284 146.623 167.322C146.787 167.34 146.95 167.357 147.114 167.374C147.139 167.427 147.16 167.476 147.184 167.528C148.178 169.683 149.249 171.849 149.852 174.096C150.004 174.659 150.122 175.231 150.208 175.808C150.477 177.759 150.303 179.745 149.699 181.619C149.095 183.493 148.077 185.207 146.72 186.634Z" fill="#F27F7E"/>
<path d="M181.828 136.047C178.826 130.19 174.174 125.262 168.703 121.641C163.214 118.025 156.916 115.822 150.37 115.23C149.512 115.152 148.651 115.107 147.789 115.093C146.77 115.078 131.443 119.499 126.309 123.109C121.177 126.675 116.955 131.398 113.985 136.895C111.02 142.423 109.561 148.634 109.756 154.904C110.01 161.212 111.768 167.368 114.884 172.858C117.957 178.331 122.321 182.97 127.595 186.372C132.945 189.786 138.318 198.836 144.635 199.156C150.998 199.478 158.256 190.94 164.06 188.348C169.864 185.734 174.882 181.645 178.613 176.488C182.239 171.433 184.585 165.575 185.449 159.415C186.347 153.108 185.928 146.604 183.775 140.575C183.222 139.026 182.572 137.514 181.828 136.047C181.208 134.824 179.388 134.374 178.249 135.109C177.663 135.47 177.238 136.043 177.063 136.71C176.888 137.377 176.977 138.085 177.311 138.688C177.675 139.406 178.014 140.135 178.328 140.877L178.064 140.252C179.25 143.104 180.056 146.098 180.462 149.159L180.369 148.464C180.801 151.785 180.793 155.149 180.346 158.468L180.439 157.773C179.987 161.092 179.101 164.337 177.804 167.425L178.068 166.8C177.401 168.376 176.623 169.902 175.741 171.369C175.294 172.109 174.82 172.833 174.318 173.539C174.098 173.848 173.87 174.153 173.642 174.456C173.343 174.852 174.049 173.939 173.74 174.327C173.687 174.394 173.635 174.46 173.582 174.526C173.424 174.724 173.263 174.92 173.1 175.115C172.013 176.412 170.826 177.623 169.551 178.736C169.233 179.014 168.91 179.285 168.582 179.549C168.419 179.681 168.257 179.819 168.087 179.942C168.093 179.937 168.638 179.523 168.315 179.763C168.214 179.839 168.114 179.916 168.012 179.991C167.335 180.492 166.641 180.968 165.928 181.418C164.288 182.451 162.567 183.351 160.782 184.108L161.407 183.844C158.328 185.141 155.091 186.026 151.781 186.478L152.477 186.385C149.168 186.832 145.815 186.838 142.505 186.403L143.201 186.496C140.192 186.092 137.25 185.297 134.448 184.13L135.073 184.393C133.45 183.708 131.885 182.893 130.394 181.955C129.655 181.49 128.936 180.996 128.237 180.474C128.137 180.399 128.038 180.323 127.939 180.248C127.619 180.007 128.168 180.426 128.172 180.429C127.987 180.296 127.808 180.153 127.637 180.002C127.299 179.727 126.966 179.445 126.639 179.157C125.329 178.004 124.106 176.755 122.979 175.422C122.697 175.089 122.421 174.75 122.151 174.407C122.034 174.258 121.821 173.957 122.292 174.591C122.23 174.508 122.166 174.426 122.103 174.343C121.953 174.143 121.804 173.943 121.658 173.74C121.146 173.031 120.659 172.305 120.198 171.562C119.155 169.879 118.244 168.117 117.475 166.292L117.739 166.917C116.48 163.922 115.619 160.775 115.179 157.557L115.272 158.252C114.874 155.285 114.869 152.279 115.255 149.311L115.162 150.006C115.558 147.132 116.331 144.322 117.462 141.65L117.198 142.275C117.909 140.602 118.748 138.986 119.708 137.442C120.188 136.669 120.697 135.915 121.235 135.18C121.357 135.013 121.48 134.847 121.605 134.682C121.718 134.533 122.029 134.161 121.499 134.817C121.551 134.753 121.601 134.687 121.652 134.622C121.947 134.248 122.249 133.88 122.559 133.518C123.73 132.147 124.998 130.862 126.354 129.674C126.697 129.374 127.045 129.08 127.399 128.792C127.56 128.661 127.721 128.532 127.884 128.404C127.949 128.353 128.015 128.303 128.08 128.251C127.383 128.805 127.886 128.402 128.045 128.283C128.773 127.737 129.521 127.219 130.289 126.727C131.996 125.636 133.791 124.69 135.656 123.899L135.031 124.163C137.737 123.027 149.729 120.344 151.91 120.637L151.214 120.544C154.42 120.991 157.553 121.857 160.534 123.118L159.909 122.855C161.419 123.496 162.887 124.233 164.304 125.062C165.011 125.477 165.705 125.914 166.385 126.375C166.707 126.592 167.025 126.815 167.34 127.042C167.498 127.156 167.654 127.271 167.81 127.387C167.896 127.452 167.982 127.517 168.068 127.582C168.431 127.854 167.569 127.188 167.949 127.489C169.221 128.488 170.428 129.566 171.565 130.716C172.123 131.285 172.662 131.871 173.182 132.476C173.449 132.786 173.71 133.101 173.966 133.42C174.093 133.579 174.526 134.153 173.995 133.45C174.125 133.622 174.256 133.793 174.384 133.966C175.486 135.458 176.465 137.037 177.311 138.688C177.936 139.907 179.748 140.362 180.89 139.626C181.477 139.265 181.902 138.691 182.077 138.025C182.252 137.358 182.163 136.65 181.828 136.047Z" fill="#3F3D56"/>
<path d="M151.348 178.736C151.078 178.749 150.811 178.678 150.582 178.533C150.354 178.389 150.175 178.177 150.071 177.928C149.967 177.679 149.942 177.403 149.999 177.139C150.057 176.875 150.194 176.635 150.392 176.451C150.426 176.319 150.449 176.224 150.483 176.092C150.471 176.063 150.459 176.035 150.447 176.006C149.233 173.112 141.488 181.18 141.154 183.9C141.006 185.102 141.068 186.321 141.337 187.502C138.829 182.029 137.526 176.081 137.518 170.061C137.517 168.551 137.601 167.041 137.769 165.54C137.908 164.309 138.1 163.087 138.347 161.874C139.691 155.291 142.578 149.122 146.771 143.871C149.168 144.005 151.269 143.64 151.472 138.993C151.508 138.167 152.121 137.451 152.256 136.637C152.027 136.667 151.795 136.686 151.566 136.701C151.495 136.704 151.419 136.708 151.348 136.712L151.321 136.713C151.07 136.724 150.82 136.663 150.603 136.536C150.386 136.408 150.21 136.221 150.096 135.996C149.983 135.771 149.937 135.519 149.964 135.268C149.991 135.018 150.09 134.781 150.249 134.585C150.347 134.464 150.446 134.342 150.545 134.221C150.695 134.033 150.849 133.849 150.999 133.661C151.017 133.644 151.033 133.625 151.048 133.605C151.221 133.391 151.393 133.181 151.566 132.967C151.251 132.478 150.827 132.069 150.328 131.77C148.598 130.757 146.211 131.459 144.962 133.024C143.709 134.588 143.472 136.783 143.908 138.738C144.336 140.402 145.044 141.98 146.001 143.406C145.908 143.526 145.81 143.642 145.716 143.762C144.001 145.967 142.507 148.335 141.254 150.832C141.608 148.063 137.274 138.063 135.597 135.945C133.584 133.401 129.455 134.511 129.1 137.736C129.097 137.768 129.093 137.799 129.09 137.83C129.339 137.971 129.583 138.12 129.821 138.277C130.121 138.478 130.353 138.764 130.487 139.098C130.622 139.432 130.652 139.799 130.574 140.151C130.496 140.503 130.314 140.823 130.051 141.069C129.788 141.316 129.457 141.477 129.1 141.532L129.064 141.537C125.731 146.296 136.415 158.682 139.09 155.901C137.831 159.468 137.041 163.184 136.741 166.955C136.571 169.179 136.581 171.414 136.771 173.637L136.76 173.558C136.165 168.717 125.971 161.518 122.994 162.117C121.28 162.463 119.591 162.384 119.851 164.114C119.855 164.142 119.859 164.169 119.864 164.197C120.326 164.385 120.775 164.602 121.211 164.846C121.46 164.986 121.703 165.135 121.942 165.293C122.241 165.493 122.473 165.779 122.608 166.114C122.742 166.448 122.772 166.815 122.694 167.167C122.616 167.519 122.434 167.839 122.171 168.085C121.908 168.331 121.577 168.493 121.221 168.547L121.184 168.553C121.158 168.557 121.136 168.561 121.109 168.564C119.592 173.784 130.843 182.209 137.683 179.528H137.686C138.364 182.474 139.346 185.341 140.617 188.083H151.086C151.123 187.967 151.157 187.847 151.191 187.73C150.222 187.791 149.249 187.733 148.294 187.558C149.071 186.605 149.847 185.644 150.624 184.691C150.641 184.673 150.658 184.655 150.673 184.635C151.067 184.147 151.465 183.663 151.858 183.175L151.859 183.175C151.88 181.68 151.708 180.188 151.348 178.737L151.348 178.736ZM139.36 155.154L139.365 155.147L139.36 155.161V155.154ZM137.041 176.057L136.951 175.855C136.955 175.708 136.955 175.562 136.951 175.412C136.951 175.371 136.944 175.33 136.944 175.288C136.977 175.547 137.007 175.806 137.045 176.065L137.041 176.057Z" fill="#3F3D56"/>
<path d="M33.7211 156.953C35.8401 156.953 37.5578 155.235 37.5578 153.116C37.5578 150.997 35.8401 149.28 33.7211 149.28C31.6022 149.28 29.8845 150.997 29.8845 153.116C29.8845 155.235 31.6022 156.953 33.7211 156.953Z" fill="#3F3D56"/>
<path d="M79.7607 198.807C81.8796 198.807 83.5973 197.089 83.5973 194.97C83.5973 192.851 81.8796 191.134 79.7607 191.134C77.6418 191.134 75.9241 192.851 75.9241 194.97C75.9241 197.089 77.6418 198.807 79.7607 198.807Z" fill="#3F3D56"/>
<path d="M254.501 198.807C256.62 198.807 258.338 197.089 258.338 194.97C258.338 192.851 256.62 191.134 254.501 191.134C252.383 191.134 250.665 192.851 250.665 194.97C250.665 197.089 252.383 198.807 254.501 198.807Z" fill="#3F3D56"/>
<path d="M263.919 149.977C266.038 149.977 267.755 148.259 267.755 146.141C267.755 144.022 266.038 142.304 263.919 142.304C261.8 142.304 260.082 144.022 260.082 146.141C260.082 148.259 261.8 149.977 263.919 149.977Z" fill="#3F3D56"/>
<path d="M252.758 114.401C254.876 114.401 256.594 112.683 256.594 110.564C256.594 108.445 254.876 106.728 252.758 106.728C250.639 106.728 248.921 108.445 248.921 110.564C248.921 112.683 250.639 114.401 252.758 114.401Z" fill="#3F3D56"/>
<path d="M92.6657 146.141C92.6634 147.121 92.2845 148.062 91.6072 148.771C90.93 149.479 90.0063 149.9 89.0274 149.946C88.0485 149.992 87.0892 149.661 86.3481 149.019C85.607 148.378 85.1408 147.477 85.046 146.501C84.9512 145.526 85.235 144.551 85.8387 143.779C86.4424 143.007 87.3198 142.497 88.2893 142.354C89.2588 142.211 90.2462 142.446 91.0472 143.01C91.8482 143.575 92.4015 144.426 92.5925 145.387C92.6417 145.635 92.6662 145.888 92.6657 146.141Z" fill="#3F3D56"/>
<path d="M169.398 125.562C171.517 125.562 173.235 123.844 173.235 121.726C173.235 119.607 171.517 117.889 169.398 117.889C167.279 117.889 165.562 119.607 165.562 121.726C165.562 123.844 167.279 125.562 169.398 125.562Z" fill="#3F3D56"/>
<path d="M131.381 121.726C131.379 122.706 131 123.647 130.322 124.356C129.645 125.064 128.721 125.485 127.743 125.531C126.764 125.577 125.804 125.246 125.063 124.604C124.322 123.963 123.856 123.062 123.761 122.086C123.666 121.111 123.95 120.136 124.554 119.364C125.157 118.592 126.035 118.082 127.004 117.939C127.974 117.796 128.961 118.031 129.762 118.595C130.563 119.16 131.117 120.011 131.308 120.972C131.357 121.22 131.381 121.473 131.381 121.726Z" fill="#3F3D56"/>
<path d="M81.8535 110.564C81.8512 111.544 81.4722 112.486 80.795 113.194C80.1177 113.903 79.1941 114.324 78.2152 114.37C77.2362 114.416 76.277 114.085 75.5359 113.443C74.7948 112.802 74.3286 111.9 74.2338 110.925C74.1389 109.95 74.4227 108.975 75.0264 108.203C75.6301 107.431 76.5075 106.921 77.477 106.778C78.4465 106.634 79.4339 106.87 80.2349 107.434C81.0359 107.999 81.5892 108.85 81.7802 109.811C81.8295 110.059 81.854 110.311 81.8535 110.564Z" fill="#3F3D56"/>
<path d="M209.508 158.348C211.627 158.348 213.345 156.63 213.345 154.511C213.345 152.392 211.627 150.675 209.508 150.675C207.389 150.675 205.672 152.392 205.672 154.511C205.672 156.63 207.389 158.348 209.508 158.348Z" fill="#3F3D56"/>
<path d="M149.169 123.469C152.251 123.469 154.749 120.971 154.749 117.889C154.749 114.807 152.251 112.308 149.169 112.308C146.087 112.308 143.588 114.807 143.588 117.889C143.588 120.971 146.087 123.469 149.169 123.469Z" fill="#3F3D56"/>
<path d="M300.085 199.1L0.915288 199.207C0.860751 199.207 0.806747 199.197 0.756362 199.176C0.705976 199.155 0.660198 199.124 0.621635 199.086C0.583072 199.047 0.552478 199.001 0.531607 198.951C0.510737 198.901 0.5 198.847 0.5 198.792C0.5 198.737 0.510737 198.683 0.531607 198.633C0.552478 198.583 0.583072 198.537 0.621635 198.498C0.660198 198.46 0.705976 198.429 0.756362 198.408C0.806747 198.387 0.860751 198.377 0.915288 198.377L300.085 198.27C300.195 198.27 300.3 198.314 300.378 198.392C300.455 198.469 300.499 198.575 300.499 198.685C300.499 198.795 300.455 198.9 300.378 198.978C300.3 199.056 300.195 199.1 300.085 199.1Z" fill="#CACACA"/>
</g>
<defs>
<clipPath id="clip0_289_628">
<rect width="300" height="199.207" fill="white" transform="translate(0.5)"/>
</clipPath>
</defs>
</svg>
