<svg width="148" height="124" viewBox="0 0 148 124" fill="none" xmlns="http://www.w3.org/2000/svg">
<g clip-path="url(#clip0_7_258)">
<path d="M6.87703 118.159C8.92994 121.98 13.287 123.62 13.287 123.62C13.287 123.62 14.3155 119.065 12.2626 115.244C10.2097 111.423 5.85271 109.783 5.85271 109.783C5.85271 109.783 4.82413 114.338 6.87703 118.159Z" fill="#2F2E41"/>
<path d="M8.28809 116.902C11.9944 119.14 13.4219 123.585 13.4219 123.585C13.4219 123.585 8.84012 124.402 5.13378 122.164C1.42743 119.926 0 115.481 0 115.481C0 115.481 4.58174 114.664 8.28809 116.902Z" fill="#F30E08"/>
<path d="M91.3848 5.95285H68.2598V6.28441H91.3848V5.95285Z" fill="#F4AAA9"/>
<path d="M85.108 6.20152H84.7776V9.26849H85.108V6.20152Z" fill="#F4AAA9"/>
<path d="M75.0321 6.20152H74.7018V9.26849H75.0321V6.20152Z" fill="#F4AAA9"/>
<path d="M103.112 21.8679H79.9875V22.1995H103.112V21.8679Z" fill="#F4AAA9"/>
<path d="M86.5946 18.8838H86.2643V21.9508H86.5946V18.8838Z" fill="#F4AAA9"/>
<path d="M96.6705 18.8838H96.3401V21.9508H96.6705V18.8838Z" fill="#F4AAA9"/>
<path d="M133.836 29.3281H110.711V29.6596H133.836V29.3281Z" fill="#F4AAA9"/>
<path d="M117.318 26.344H116.987V29.411H117.318V26.344Z" fill="#F4AAA9"/>
<path d="M127.394 26.344H127.063V29.411H127.394V26.344Z" fill="#F4AAA9"/>
<path d="M131.523 106.251H108.398V106.582H131.523V106.251Z" fill="#F4AAA9"/>
<path d="M115.005 103.267H114.675V106.334H115.005V103.267Z" fill="#F4AAA9"/>
<path d="M125.081 103.267H124.751V106.334H125.081V103.267Z" fill="#F4AAA9"/>
<path d="M92.0455 53.0349H68.9205V53.3664H92.0455V53.0349Z" fill="#F4AAA9"/>
<path d="M75.5276 50.0508H75.1973V53.1177H75.5276V50.0508Z" fill="#F4AAA9"/>
<path d="M85.6036 50.0508H85.2732V53.1177H85.6036V50.0508Z" fill="#F4AAA9"/>
<path d="M99.3133 92.9883H76.1884V93.3198H99.3133V92.9883Z" fill="#F4AAA9"/>
<path d="M82.7955 90.0042H82.4651V93.0711H82.7955V90.0042Z" fill="#F4AAA9"/>
<path d="M92.8714 90.0042H92.541V93.0711H92.8714V90.0042Z" fill="#F4AAA9"/>
<path d="M136.313 80.8862H113.188V81.2178H136.313V80.8862Z" fill="#F4AAA9"/>
<path d="M119.796 77.9021H119.465V80.9691H119.796V77.9021Z" fill="#F4AAA9"/>
<path d="M129.871 77.9021H129.541V80.9691H129.871V77.9021Z" fill="#F4AAA9"/>
<path d="M59.8045 116.409H20.6926V116.127H59.5231V102.43H23.9806L22.254 98.8198L22.5077 98.6977L24.1577 102.148H59.8045V116.409Z" fill="#2F2E41"/>
<path d="M25.8981 123.328C27.5298 123.328 28.8526 122.001 28.8526 120.363C28.8526 118.725 27.5298 117.398 25.8981 117.398C24.2664 117.398 22.9436 118.725 22.9436 120.363C22.9436 122.001 24.2664 123.328 25.8981 123.328Z" fill="#3F3D56"/>
<path d="M55.0211 123.328C56.6528 123.328 57.9756 122.001 57.9756 120.363C57.9756 118.725 56.6528 117.398 55.0211 117.398C53.3894 117.398 52.0666 118.725 52.0666 120.363C52.0666 122.001 53.3894 123.328 55.0211 123.328Z" fill="#3F3D56"/>
<path d="M89.3496 59.2215C90.3597 59.2215 91.1786 58.3996 91.1786 57.3858C91.1786 56.372 90.3597 55.5502 89.3496 55.5502C88.3395 55.5502 87.5206 56.372 87.5206 57.3858C87.5206 58.3996 88.3395 59.2215 89.3496 59.2215Z" fill="#3F3D56"/>
<path d="M63.9878 97.7703H20.0257L10.5134 66.5641H73.7841L73.7265 66.7478L63.9878 97.7703ZM20.2339 97.4879H63.7814L73.4004 66.8466H10.8937L20.2339 97.4879Z" fill="#2F2E41"/>
<path d="M60.5561 96.1464H21.9426L13.5876 68.4703H69.1604L69.1099 68.6333L60.5561 96.1464Z" fill="#F4AAA9"/>
<path d="M74.5723 63.7762L74.3003 63.7038L76.1571 56.6798H86.9579V56.9623H76.3736L74.5723 63.7762Z" fill="#2F2E41"/>
<path d="M70.6224 76.0248H13.5873V76.3072H70.6224V76.0248Z" fill="#2F2E41"/>
<path d="M67.3561 86.4293H16.7589V86.7117H67.3561V86.4293Z" fill="#2F2E41"/>
<path d="M42.2886 66.7053H42.0072V97.6291H42.2886V66.7053Z" fill="#2F2E41"/>
<path d="M54.8865 66.6965L52.8666 97.6195L53.1475 97.638L55.1673 66.715L54.8865 66.6965Z" fill="#2F2E41"/>
<path d="M29.4151 66.6961L29.1343 66.7145L31.1424 97.6383L31.4232 97.6199L29.4151 66.6961Z" fill="#2F2E41"/>
<path d="M148 123.507H0V123.839H148V123.507Z" fill="#2F2E41"/>
<path d="M98.3491 10.2579C98.3491 10.2579 100.764 17.1555 99.2778 18.2166C97.7919 19.2778 104.293 27.9439 104.293 27.9439L112.094 25.8216L107.822 18.5703C107.822 18.5703 107.265 11.3191 107.265 10.2579C107.265 9.19673 98.3491 10.2579 98.3491 10.2579Z" fill="#A0616A"/>
<path opacity="0.1" d="M98.3491 10.2579C98.3491 10.2579 100.764 17.1555 99.2778 18.2166C97.7919 19.2778 104.293 27.9439 104.293 27.9439L112.094 25.8216L107.822 18.5703C107.822 18.5703 107.265 11.3191 107.265 10.2579C107.265 9.19673 98.3491 10.2579 98.3491 10.2579Z" fill="black"/>
<path d="M94.2961 59.4251C94.2961 59.4251 93.5912 68.2681 94.2961 72.8665C95.0009 77.4649 96.0582 90.1988 96.0582 90.1988C96.0582 90.1988 96.0582 114.252 99.935 114.606C103.812 114.959 106.631 115.313 106.984 113.898C107.336 112.483 105.222 111.776 106.279 111.068C107.336 110.361 107.689 107.885 106.279 105.055C104.869 102.225 106.279 73.574 106.279 73.574L112.975 91.6137C112.975 91.6137 113.68 106.47 114.385 108.592C115.09 110.715 113.68 114.606 116.147 114.959C118.614 115.313 121.433 113.191 122.843 112.483C124.253 111.776 120.729 111.776 121.433 111.422C122.138 111.068 124.253 110.007 123.548 109.653C122.843 109.3 122.138 92.3212 122.138 92.3212C122.138 92.3212 120.2 56.0648 117.733 54.6499C115.266 53.235 113.68 55.6721 113.68 55.6721L94.2961 59.4251Z" fill="#2F2E41"/>
<path d="M100.64 113.191V116.021C100.64 116.021 97.468 123.713 100.64 123.713C103.812 123.713 106.279 124.51 106.279 123.449V113.898L100.64 113.191Z" fill="#2F2E41"/>
<path d="M121.434 113.186V116.015C121.434 116.015 124.605 123.708 121.434 123.708C118.262 123.708 115.795 124.505 115.795 123.444V113.893L121.434 113.186Z" fill="#2F2E41"/>
<path d="M103.283 15.3869C106.787 15.3869 109.627 12.5363 109.627 9.01989C109.627 5.5035 106.787 2.65291 103.283 2.65291C99.7796 2.65291 96.9393 5.5035 96.9393 9.01989C96.9393 12.5363 99.7796 15.3869 103.283 15.3869Z" fill="#A0616A"/>
<path d="M101.345 20.8695C101.345 20.8695 103.107 26.1754 105.926 25.1142L108.746 24.053L113.68 58.0102C113.68 58.0102 109.803 63.6698 104.164 60.1326C98.5253 56.5954 101.345 20.8695 101.345 20.8695Z" fill="#6C63FF"/>
<path d="M106.279 19.8084L107.865 16.448C107.865 16.448 117.204 20.8695 118.614 22.2844C120.024 23.6993 120.024 25.8216 120.024 25.8216L117.557 34.6647C117.557 34.6647 118.262 54.1193 118.262 54.8268C118.262 55.5342 120.729 59.4251 118.966 58.0103C117.204 56.5954 116.852 55.1805 115.442 57.3028C114.032 59.4251 110.861 61.9012 110.861 61.9012L106.279 19.8084Z" fill="#3F3D56"/>
<path d="M118.614 45.2763L117.557 55.1805C117.557 55.1805 111.213 60.84 112.623 61.1937C114.032 61.5475 114.737 60.1326 114.737 60.1326C114.737 60.1326 117.204 62.6086 118.614 61.1937C120.024 59.7789 123.548 46.3375 123.548 46.3375L118.614 45.2763Z" fill="#A0616A"/>
<path d="M103.418 0.0215302C102.012 -0.0289287 100.507 -0.053889 99.3212 0.706741C98.7757 1.08847 98.2971 1.5586 97.9053 2.0979C96.7504 3.56316 95.7526 5.40678 96.1815 7.22477L96.6798 7.02974C96.6798 7.51502 96.5723 7.99422 96.3651 8.43269C96.4352 8.22793 96.6702 8.55893 96.6073 8.76605L96.0585 10.5732C96.9607 10.2412 98.083 10.9133 98.2204 11.8679C98.2831 9.76888 98.5 7.36199 100.197 6.13294C101.052 5.51314 102.135 5.32393 103.177 5.15591C104.138 5.00091 105.145 4.8531 106.066 5.17064C106.986 5.48819 107.77 6.43307 107.561 7.3873C107.986 7.24055 108.461 7.53744 108.67 7.9358C108.88 8.33415 108.891 8.80408 108.897 9.2546C109.35 9.57553 109.865 8.93826 110.049 8.4139C110.482 7.18308 110.867 5.8729 110.634 4.58882C110.4 3.30474 109.358 2.0776 108.057 2.07325C108.215 1.89923 108.299 1.67042 108.292 1.4352L107.22 1.3443C107.492 1.30563 107.743 1.1732 107.928 0.969707C107.498 1.44499 104.114 0.0464986 103.418 0.0215302Z" fill="#2F2E41"/>
<path d="M103.107 18.7472C103.107 18.7472 100.238 15.9255 99.2054 16.0983C98.1729 16.2712 96.7631 18.7472 96.7631 18.7472C96.7631 18.7472 88.3047 21.577 88.6571 24.4067C89.0096 27.2365 92.8863 41.0316 92.8863 41.0316C92.8863 41.0316 96.0582 57.6565 93.2388 59.4251C90.4193 61.1937 106.631 65.7921 106.984 63.6698C107.336 61.5474 108.041 40.3242 106.984 37.1407C105.926 33.9572 103.107 18.7472 103.107 18.7472Z" fill="#3F3D56"/>
<path d="M115.442 24.4068H119.8C119.8 24.4068 122.843 37.8482 123.196 39.263C123.548 40.6779 124.253 47.3986 123.901 47.3986C123.548 47.3986 116.499 45.9837 116.499 47.0449L115.442 24.4068Z" fill="#3F3D56"/>
<path d="M115.295 57.692H98.6116C96.9836 50.1755 96.8475 42.9132 98.6116 35.9746H115.295C112.602 42.7884 112.434 50.0009 115.295 57.692Z" fill="#F4AAA9"/>
<path d="M91.829 48.4598L96.7631 50.5821C96.7631 50.5821 106.279 51.997 106.279 48.1061C106.279 44.2151 96.7631 46.3375 96.7631 46.3375L93.591 45.3195L91.829 48.4598Z" fill="#A0616A"/>
<path d="M92.8863 22.2844L88.6571 23.3456L85.4852 42.0928C85.4852 42.0928 84.4279 47.0449 86.1901 47.3986C87.9523 47.7523 92.8863 50.5821 92.8863 50.5821C92.8863 50.5821 93.5912 45.2763 95.0009 45.2763L91.4766 42.4465L93.5912 30.0663L92.8863 22.2844Z" fill="#3F3D56"/>
<path d="M33.0768 58.5057H9.95178V58.8372H33.0768V58.5057Z" fill="#F4AAA9"/>
<path d="M16.5589 55.5216H16.2285V58.5886H16.5589V55.5216Z" fill="#F4AAA9"/>
<path d="M26.6348 55.5216H26.3044V58.5886H26.6348V55.5216Z" fill="#F4AAA9"/>
<path d="M41.1705 9.43427H18.0455V9.76583H41.1705V9.43427Z" fill="#F4AAA9"/>
<path d="M34.8937 9.68294H34.5634V12.7499H34.8937V9.68294Z" fill="#F4AAA9"/>
<path d="M24.8178 9.68294H24.4875V12.7499H24.8178V9.68294Z" fill="#F4AAA9"/>
<path d="M64.4607 42.0933H41.3357V42.4248H64.4607V42.0933Z" fill="#F4AAA9"/>
<path d="M58.1839 42.3419H57.8535V45.4089H58.1839V42.3419Z" fill="#F4AAA9"/>
<path d="M48.108 42.3419H47.7776V45.4089H48.108V42.3419Z" fill="#F4AAA9"/>
<path d="M25.1482 41.9275H2.02319V42.2591H25.1482V41.9275Z" fill="#F4AAA9"/>
<path d="M18.8714 42.1761H18.541V45.2431H18.8714V42.1761Z" fill="#F4AAA9"/>
<path d="M8.79551 42.1761H8.46515V45.2431H8.79551V42.1761Z" fill="#F4AAA9"/>
<path d="M52.8982 25.3493H29.7732V25.6809H52.8982V25.3493Z" fill="#F4AAA9"/>
<path d="M36.3803 22.3652H36.05V25.4322H36.3803V22.3652Z" fill="#F4AAA9"/>
<path d="M46.4562 22.3652H46.1259V25.4322H46.4562V22.3652Z" fill="#F4AAA9"/>
</g>
<defs>
<clipPath id="clip0_7_258">
<rect width="148" height="124" fill="white"/>
</clipPath>
</defs>
</svg>
