<svg width="200" height="167" viewBox="0 0 200 167" fill="none" xmlns="http://www.w3.org/2000/svg">
<g clip-path="url(#clip0_261_511)">
<path d="M9.29323 159.093C12.0674 164.238 17.9553 166.447 17.9553 166.447C17.9553 166.447 19.3453 160.314 16.5711 155.169C13.7969 150.024 7.90901 147.816 7.90901 147.816C7.90901 147.816 6.51903 153.948 9.29323 159.093Z" fill="#2F2E41"/>
<path d="M11.2001 157.401C16.2087 160.414 18.1377 166.399 18.1377 166.399C18.1377 166.399 11.9461 167.499 6.93753 164.486C1.92896 161.472 0 155.487 0 155.487C0 155.487 6.19154 154.387 11.2001 157.401Z" fill="#F4AAA9"/>
<path d="M123.493 8.01514H92.2429V8.46157H123.493V8.01514Z" fill="#F2F2F2"/>
<path d="M115.011 8.34998H114.564V12.4794H115.011V8.34998Z" fill="#F2F2F2"/>
<path d="M101.395 8.34998H100.948V12.4794H101.395V8.34998Z" fill="#F2F2F2"/>
<path d="M139.341 29.4437H108.091V29.8902H139.341V29.4437Z" fill="#F2F2F2"/>
<path d="M117.02 25.4259H116.573V29.5554H117.02V25.4259Z" fill="#F2F2F2"/>
<path d="M130.636 25.4259H130.189V29.5554H130.636V25.4259Z" fill="#F2F2F2"/>
<path d="M180.859 39.4884H149.609V39.9348H180.859V39.4884Z" fill="#F2F2F2"/>
<path d="M158.537 35.4705H158.091V39.5999H158.537V35.4705Z" fill="#F2F2F2"/>
<path d="M172.154 35.4705H171.707V39.5999H172.154V35.4705Z" fill="#F2F2F2"/>
<path d="M177.734 143.06H146.484V143.506H177.734V143.06Z" fill="#F2F2F2"/>
<path d="M155.412 139.042H154.966V143.171H155.412V139.042Z" fill="#F2F2F2"/>
<path d="M169.029 139.042H168.582V143.171H169.029V139.042Z" fill="#F2F2F2"/>
<path d="M124.386 71.408H93.1357V71.8544H124.386V71.408Z" fill="#F2F2F2"/>
<path d="M102.064 67.3901H101.618V71.5196H102.064V67.3901Z" fill="#F2F2F2"/>
<path d="M115.681 67.3901H115.234V71.5196H115.681V67.3901Z" fill="#F2F2F2"/>
<path d="M134.207 125.203H102.957V125.649H134.207V125.203Z" fill="#F2F2F2"/>
<path d="M111.886 121.185H111.439V125.314H111.886V121.185Z" fill="#F2F2F2"/>
<path d="M125.502 121.185H125.055V125.314H125.502V121.185Z" fill="#F2F2F2"/>
<path d="M184.207 108.908H152.957V109.354H184.207V108.908Z" fill="#F2F2F2"/>
<path d="M161.886 104.89H161.439V109.02H161.886V104.89Z" fill="#F2F2F2"/>
<path d="M175.502 104.89H175.055V109.02H175.502V104.89Z" fill="#F2F2F2"/>
<path d="M80.8169 156.737H27.9629V156.357H80.4365V137.915H32.4062L30.0729 133.054L30.4158 132.89L32.6455 137.535H80.8169V156.737Z" fill="#2F2E41"/>
<path d="M34.9975 166.054C37.2025 166.054 38.99 164.266 38.99 162.061C38.99 159.856 37.2025 158.068 34.9975 158.068C32.7924 158.068 31.0049 159.856 31.0049 162.061C31.0049 164.266 32.7924 166.054 34.9975 166.054Z" fill="#3F3D56"/>
<path d="M74.3527 166.054C76.5577 166.054 78.3453 164.266 78.3453 162.061C78.3453 159.856 76.5577 158.068 74.3527 158.068C72.1476 158.068 70.3601 159.856 70.3601 162.061C70.3601 164.266 72.1476 166.054 74.3527 166.054Z" fill="#3F3D56"/>
<path d="M120.743 79.7379C122.108 79.7379 123.214 78.6313 123.214 77.2663C123.214 75.9013 122.108 74.7947 120.743 74.7947C119.378 74.7947 118.271 75.9013 118.271 77.2663C118.271 78.6313 119.378 79.7379 120.743 79.7379Z" fill="#3F3D56"/>
<path d="M86.47 131.641H27.0618L14.2073 89.6243H99.7082L99.6304 89.8715L86.47 131.641ZM27.3431 131.261H86.1911L99.1898 90.0045H14.7212L27.3431 131.261Z" fill="#2F2E41"/>
<path d="M81.8326 129.455H29.6522L18.3616 92.1909H93.46L93.3917 92.4103L81.8326 129.455Z" fill="#F2F2F2"/>
<path d="M100.773 85.8706L100.406 85.773L102.915 76.3157H117.511V76.696H103.208L100.773 85.8706Z" fill="#2F2E41"/>
<path d="M95.4357 102.362H18.3613V102.743H95.4357V102.362Z" fill="#2F2E41"/>
<path d="M91.0216 116.371H22.647V116.752H91.0216V116.371Z" fill="#2F2E41"/>
<path d="M57.1466 89.8143H56.7664V131.451H57.1466V89.8143Z" fill="#2F2E41"/>
<path d="M74.171 89.8024L71.4414 131.438L71.8209 131.463L74.5504 89.8273L74.171 89.8024Z" fill="#2F2E41"/>
<path d="M39.7501 89.802L39.3706 89.8268L42.0843 131.464L42.4638 131.439L39.7501 89.802Z" fill="#2F2E41"/>
<path d="M200 166.295H0V166.741H200V166.295Z" fill="#2F2E41"/>
<path d="M132.904 13.8117C132.904 13.8117 136.167 23.0988 134.159 24.5276C132.151 25.9563 140.936 37.6248 140.936 37.6248L151.479 34.7672L145.705 25.0038C145.705 25.0038 144.952 15.2404 144.952 13.8117C144.952 12.3829 132.904 13.8117 132.904 13.8117Z" fill="#A0616A"/>
<path opacity="0.1" d="M132.904 13.8117C132.904 13.8117 136.167 23.0988 134.159 24.5276C132.151 25.9563 140.936 37.6248 140.936 37.6248L151.479 34.7672L145.705 25.0038C145.705 25.0038 144.952 15.2404 144.952 13.8117C144.952 12.3829 132.904 13.8117 132.904 13.8117Z" fill="black"/>
<path d="M127.427 80.012C127.427 80.012 126.475 91.9186 127.427 98.11C128.38 104.301 129.809 121.447 129.809 121.447C129.809 121.447 129.809 153.833 135.047 154.309C140.286 154.785 144.096 155.261 144.573 153.356C145.049 151.451 142.191 150.499 143.62 149.546C145.049 148.594 145.525 145.26 143.62 141.45C141.715 137.64 143.62 99.0625 143.62 99.0625L152.669 123.352C152.669 123.352 153.622 143.355 154.574 146.212C155.527 149.07 153.622 154.309 156.956 154.785C160.289 155.261 164.099 152.404 166.004 151.451C167.91 150.499 163.147 150.499 164.099 150.023C165.052 149.546 167.91 148.118 166.957 147.641C166.004 147.165 165.052 124.304 165.052 124.304C165.052 124.304 162.433 75.4875 159.099 73.5825C155.765 71.6774 153.622 74.9588 153.622 74.9588L127.427 80.012Z" fill="#2F2E41"/>
<path d="M136 152.404V156.214C136 156.214 131.713 166.571 136 166.571C140.286 166.571 143.62 167.644 143.62 166.216V153.356L136 152.404Z" fill="#2F2E41"/>
<path d="M164.099 152.397V156.207C164.099 156.207 168.386 166.564 164.099 166.564C159.813 166.564 156.479 167.638 156.479 166.209V153.35L164.099 152.397Z" fill="#2F2E41"/>
<path d="M139.572 20.7175C144.306 20.7175 148.144 16.8793 148.144 12.1447C148.144 7.41016 144.306 3.57202 139.572 3.57202C134.837 3.57202 130.999 7.41016 130.999 12.1447C130.999 16.8793 134.837 20.7175 139.572 20.7175Z" fill="#A0616A"/>
<path d="M136.953 28.0995C136.953 28.0995 139.334 35.2434 143.144 33.8146L146.954 32.3858L153.622 78.107C153.622 78.107 148.383 85.7272 140.763 80.9646C133.142 76.202 136.953 28.0995 136.953 28.0995Z" fill="#F30E08"/>
<path d="M143.62 26.6707L145.763 22.1462C145.763 22.1462 158.384 28.0995 160.289 30.0046C162.194 31.9096 162.194 34.7672 162.194 34.7672L158.861 46.6737C158.861 46.6737 159.813 72.8682 159.813 73.8207C159.813 74.7732 163.147 80.0121 160.766 78.1071C158.384 76.202 157.908 74.297 156.003 77.1545C154.098 80.0121 149.812 83.3459 149.812 83.3459L143.62 26.6707Z" fill="#3F3D56"/>
<path d="M160.289 60.9615L158.86 74.2969C158.86 74.2969 150.288 81.9171 152.193 82.3933C154.098 82.8696 155.05 80.9646 155.05 80.9646C155.05 80.9646 158.384 84.2984 160.289 82.3933C162.194 80.4883 166.957 62.3903 166.957 62.3903L160.289 60.9615Z" fill="#A0616A"/>
<path d="M139.754 0.0289891C137.854 -0.0389507 135.82 -0.072558 134.218 0.95158C133.48 1.46555 132.834 2.09856 132.304 2.82469C130.744 4.79756 129.395 7.27988 129.975 9.72768L130.648 9.46509C130.648 10.1185 130.503 10.7637 130.223 11.3541C130.318 11.0784 130.635 11.524 130.55 11.8029L129.809 14.2361C131.028 13.7891 132.544 14.6941 132.73 15.9793C132.815 13.1532 133.108 9.91245 135.401 8.25761C136.557 7.42308 138.02 7.16833 139.428 6.9421C140.726 6.73339 142.088 6.53438 143.332 6.96193C144.576 7.38949 145.635 8.66171 145.353 9.94651C145.927 9.74893 146.568 10.1487 146.852 10.685C147.135 11.2214 147.15 11.8541 147.159 12.4607C147.77 12.8928 148.466 12.0348 148.715 11.3288C149.3 9.67155 149.82 7.90748 149.505 6.17855C149.19 4.44961 147.781 2.79736 146.023 2.79149C146.237 2.55719 146.351 2.24911 146.341 1.9324L144.892 1.81001C145.26 1.75794 145.598 1.57964 145.849 1.30565C145.267 1.94559 140.695 0.0626074 139.754 0.0289891Z" fill="#2F2E41"/>
<path d="M139.334 25.2419C139.334 25.2419 135.457 21.4426 134.061 21.6753C132.666 21.908 130.761 25.2419 130.761 25.2419C130.761 25.2419 119.331 29.052 119.807 32.8621C120.283 36.6722 125.522 55.2464 125.522 55.2464C125.522 55.2464 129.808 77.6307 125.998 80.012C122.188 82.3933 144.096 88.5848 144.573 85.7272C145.049 82.8696 146.001 54.2939 144.573 50.0075C143.144 45.7212 139.334 25.2419 139.334 25.2419Z" fill="#3F3D56"/>
<path d="M156.003 32.8621H161.892C161.892 32.8621 166.004 50.96 166.481 52.8651C166.957 54.7701 167.909 63.8191 167.433 63.8191C166.957 63.8191 157.432 61.9141 157.432 63.3428L156.003 32.8621Z" fill="#3F3D56"/>
<path d="M155.804 77.6786H133.259C131.059 67.558 130.875 57.7798 133.259 48.4375H155.804C152.165 57.6118 151.938 67.323 155.804 77.6786Z" fill="#F2F2F2"/>
<path d="M124.093 65.2479L130.761 68.1055C130.761 68.1055 143.62 70.0105 143.62 64.7717C143.62 59.5328 130.761 62.3903 130.761 62.3903L126.474 61.0198L124.093 65.2479Z" fill="#A0616A"/>
<path d="M125.522 30.0045L119.807 31.4333L115.521 56.6752C115.521 56.6752 114.092 63.3429 116.473 63.8191C118.854 64.2954 125.522 68.1055 125.522 68.1055C125.522 68.1055 126.475 60.9616 128.38 60.9616L123.617 57.1515L126.475 40.4823L125.522 30.0045Z" fill="#3F3D56"/>
<path d="M44.6982 78.774H13.4482V79.2205H44.6982V78.774Z" fill="#F2F2F2"/>
<path d="M22.3768 74.7562H21.9304V78.8857H22.3768V74.7562Z" fill="#F2F2F2"/>
<path d="M35.9931 74.7562H35.5466V78.8857H35.9931V74.7562Z" fill="#F2F2F2"/>
<path d="M55.6357 12.7026H24.3857V13.1491H55.6357V12.7026Z" fill="#F2F2F2"/>
<path d="M47.1537 13.0375H46.7073V17.1669H47.1537V13.0375Z" fill="#F2F2F2"/>
<path d="M33.5375 13.0375H33.0911V17.1669H33.5375V13.0375Z" fill="#F2F2F2"/>
<path d="M87.1091 56.6759H55.8591V57.1223H87.1091V56.6759Z" fill="#F2F2F2"/>
<path d="M78.6268 57.0106H78.1804V61.1401H78.6268V57.0106Z" fill="#F2F2F2"/>
<path d="M65.0109 57.0106H64.5645V61.1401H65.0109V57.0106Z" fill="#F2F2F2"/>
<path d="M33.9841 56.4526H2.73413V56.8991H33.9841V56.4526Z" fill="#F2F2F2"/>
<path d="M25.5018 56.7875H25.0554V60.9169H25.5018V56.7875Z" fill="#F2F2F2"/>
<path d="M11.8859 56.7875H11.4395V60.9169H11.8859V56.7875Z" fill="#F2F2F2"/>
<path d="M71.4841 34.1312H40.2341V34.5777H71.4841V34.1312Z" fill="#F2F2F2"/>
<path d="M49.1625 30.1134H48.7161V34.2429H49.1625V30.1134Z" fill="#F2F2F2"/>
<path d="M62.7787 30.1134H62.3323V34.2429H62.7787V30.1134Z" fill="#F2F2F2"/>
</g>
<defs>
<clipPath id="clip0_261_511">
<rect width="200" height="166.958" fill="white"/>
</clipPath>
</defs>
</svg>
