<svg width="400" height="266" viewBox="0 0 400 266" fill="none" xmlns="http://www.w3.org/2000/svg">
<g clip-path="url(#clip0_201_301)">
<path d="M143.48 152.986C157.188 128.872 183.337 110.357 211.017 112.14C190.599 134.344 178.693 163.054 177.405 193.19C176.951 204.815 177.656 217.791 169.937 226.495C165.135 231.911 157.795 234.534 150.577 235.084C143.36 235.634 136.144 234.33 129.023 233.032L127.295 233.562C126.638 205.832 129.772 177.1 143.48 152.986Z" fill="#F0F0F0"/>
<path d="M211.058 112.721C190.589 122.575 173.135 139.032 162.421 159.103C160.104 163.442 158.132 168.045 157.272 172.912C156.411 177.782 157.012 182.417 158.676 187.042C160.196 191.27 162.241 195.419 162.707 199.943C163.199 204.712 161.444 209.171 158.286 212.709C154.421 217.039 149.232 219.722 144.066 222.169C138.33 224.887 132.329 227.618 128.266 232.69C127.774 233.304 126.849 232.505 127.34 231.891C134.409 223.067 146.508 221.409 154.899 214.301C158.814 210.984 161.753 206.468 161.568 201.175C161.405 196.548 159.3 192.268 157.724 188C156.068 183.519 155.243 179.013 155.837 174.235C156.444 169.348 158.24 164.658 160.435 160.278C165.386 150.402 172.162 141.334 179.924 133.496C188.844 124.486 199.24 117.068 210.662 111.564C211.369 111.224 211.761 112.383 211.058 112.721Z" fill="white"/>
<path d="M165.559 152.395C162.421 150.1 160.201 146.765 159.295 142.985C158.389 139.205 158.857 135.225 160.614 131.758C160.972 131.057 162.077 131.581 161.719 132.282C160.076 135.508 159.641 139.215 160.492 142.733C161.343 146.252 163.423 149.35 166.358 151.47C166.995 151.931 166.193 152.854 165.559 152.395Z" fill="white"/>
<path d="M157.622 185C165.485 183.851 172.626 179.781 177.622 173.6C178.116 172.988 179.041 173.787 178.547 174.399C173.337 180.821 165.897 185.042 157.712 186.219C156.932 186.331 156.846 185.111 157.622 185V185Z" fill="white"/>
<path d="M189.448 125.99C190.477 127.131 191.774 127.998 193.221 128.514C194.668 129.03 196.221 129.179 197.74 128.946C198.518 128.825 198.603 130.045 197.829 130.166C196.15 130.415 194.435 130.249 192.835 129.682C191.235 129.116 189.798 128.166 188.649 126.916C188.531 126.807 188.459 126.657 188.447 126.497C188.435 126.337 188.485 126.178 188.586 126.054C188.692 125.932 188.843 125.857 189.004 125.845C189.166 125.833 189.325 125.885 189.448 125.99Z" fill="white"/>
<path d="M266.092 188.211C265.608 188.301 265.124 188.391 264.636 188.49C258.137 189.73 251.748 191.495 245.535 193.77C245.052 193.938 244.564 194.116 244.087 194.298C229.175 199.937 215.44 208.295 203.58 218.948C198.864 223.192 194.479 227.788 190.46 232.697C184.911 239.476 179.434 247.269 172.183 251.689C171.432 252.159 170.652 252.582 169.848 252.955L128.076 235.629C128.001 235.541 127.921 235.464 127.846 235.377L126.146 234.761C126.336 234.493 126.538 234.22 126.728 233.952C126.837 233.796 126.956 233.645 127.065 233.489C127.141 233.386 127.217 233.284 127.28 233.187C127.305 233.153 127.33 233.119 127.352 233.094C127.414 232.997 127.482 232.914 127.541 232.826C128.668 231.294 129.808 229.768 130.96 228.246C130.964 228.236 130.964 228.236 130.977 228.231C139.787 216.66 149.64 205.723 160.84 196.629C161.177 196.356 161.518 196.073 161.874 195.807C166.945 191.736 172.341 188.086 178.006 184.894C181.114 183.157 184.308 181.577 187.576 180.162C196.026 176.523 204.997 174.235 214.158 173.383C232.421 171.687 251.023 175.851 265.031 187.324C265.389 187.618 265.738 187.908 266.092 188.211Z" fill="#F0F0F0"/>
<path d="M265.778 188.702C243.502 184.246 219.658 186.878 199.019 196.453C194.557 198.523 190.211 201.011 186.594 204.379C182.975 207.749 180.664 211.812 179.207 216.506C177.876 220.797 177.011 225.341 174.659 229.234C172.18 233.337 168.095 235.841 163.443 236.765C157.751 237.895 151.992 236.913 146.393 235.757C140.177 234.473 133.741 233.041 127.444 234.644C126.681 234.838 126.424 233.643 127.186 233.449C138.142 230.66 148.801 236.62 159.78 235.997C164.903 235.706 169.969 233.869 173.007 229.532C175.664 225.739 176.56 221.054 177.871 216.697C179.247 212.123 181.301 208.028 184.651 204.571C188.079 201.034 192.337 198.371 196.726 196.196C206.626 191.291 217.495 188.13 228.412 186.545C240.959 184.722 253.725 185.058 266.159 187.54C266.928 187.694 266.543 188.855 265.778 188.702V188.702Z" fill="white"/>
<path d="M205.564 192.987C204.44 189.265 204.675 185.266 206.228 181.702C207.78 178.138 210.549 175.242 214.04 173.531C214.747 173.188 215.315 174.271 214.606 174.615C211.353 176.202 208.774 178.9 207.335 182.221C205.896 185.543 205.691 189.27 206.759 192.729C206.99 193.481 205.793 193.734 205.564 192.987Z" fill="white"/>
<path d="M179.596 214.241C186.566 218.058 194.718 219.107 202.428 217.18C203.191 216.989 203.448 218.184 202.686 218.375C194.659 220.366 186.178 219.256 178.933 215.269C178.243 214.888 178.909 213.863 179.596 214.241Z" fill="white"/>
<path d="M240.535 186.287C240.67 187.817 241.183 189.29 242.028 190.573C242.873 191.857 244.023 192.91 245.376 193.639C246.071 194.01 245.403 195.035 244.713 194.666C243.223 193.854 241.954 192.689 241.017 191.273C240.08 189.858 239.505 188.234 239.34 186.545C239.312 186.387 239.344 186.224 239.431 186.089C239.518 185.954 239.653 185.857 239.809 185.818C239.967 185.785 240.132 185.815 240.268 185.903C240.404 185.991 240.5 186.129 240.535 186.287Z" fill="white"/>
<path d="M186.519 216.796C180.669 188.51 173.356 179.08 173.356 179.08L170.563 176.913L167.203 174.304L167.22 173.968L166.423 173.697L166.236 173.552L165.929 173.316L165.88 173.369L165.775 173.477L150.573 168.31L131.286 161.759L122.355 150.15C120.901 148.26 119.028 146.732 116.884 145.686C114.74 144.64 112.384 144.105 109.998 144.123L81.4757 144.334C77.6191 144.362 73.9127 145.833 71.0851 148.455L52.3376 165.845L23.1255 179.796L23.0762 179.747L22.7695 179.966L18.2559 182.124L18.4422 183.094L15.6486 185.11C15.6486 185.11 8.336 193.885 2.4859 220.205C0.997699 226.902 0.265153 241.268 0.000743047 258.97C-0.0125382 259.866 0.152343 260.755 0.485795 261.586C0.819247 262.418 1.31462 263.174 1.94311 263.812C2.5716 264.45 3.32066 264.957 4.14675 265.303C4.97284 265.649 5.85947 265.827 6.75509 265.828H162.783V265.828H182.257C183.152 265.827 184.038 265.649 184.864 265.303C185.689 264.958 186.438 264.452 187.066 263.814C187.695 263.177 188.19 262.421 188.524 261.591C188.858 260.761 189.024 259.872 189.011 258.977C188.753 239.714 188.021 224.059 186.519 216.796Z" fill="#3F3D56"/>
<path d="M206.538 24.6677C200.468 24.6677 194.646 27.0792 190.354 31.3716C186.061 35.664 183.65 41.4858 183.65 47.5562C183.65 53.6265 186.061 59.4483 190.354 63.7407C194.646 68.0331 200.468 70.4446 206.538 70.4446H377.112C383.182 70.4446 389.004 68.0331 393.296 63.7407C397.589 59.4483 400 53.6265 400 47.5562C400 41.4858 397.589 35.664 393.296 31.3716C389.004 27.0792 383.182 24.6677 377.112 24.6677H206.538Z" fill="#E5E5E5"/>
<path d="M206.538 29.3C201.696 29.3 197.053 31.2235 193.629 34.6472C190.205 38.0709 188.282 42.7144 188.282 47.5563C188.282 52.3982 190.205 57.0417 193.629 60.4654C197.053 63.8891 201.696 65.8126 206.538 65.8126H377.112C381.953 65.8126 386.597 63.8891 390.021 60.4654C393.444 57.0417 395.368 52.3982 395.368 47.5563C395.368 42.7144 393.444 38.0709 390.021 34.6472C386.597 31.2235 381.953 29.3 377.112 29.3H206.538Z" fill="white"/>
<path d="M100.216 133.408C120.854 133.408 137.584 116.678 137.584 96.0402C137.584 75.4028 120.854 58.6729 100.216 58.6729C79.5788 58.6729 62.8489 75.4028 62.8489 96.0402C62.8489 116.678 79.5788 133.408 100.216 133.408Z" fill="#9E616A"/>
<path d="M90.6568 131.578C90.4971 131.226 90.338 130.874 90.1792 130.52C90.2404 130.522 90.301 130.531 90.3621 130.532L90.6568 131.578Z" fill="#2F2E41"/>
<path d="M61.8096 60.372C63.6995 58.8644 65.9084 57.4772 68.3248 57.5551C70.7411 57.633 73.1914 59.8154 72.6908 62.1806C77.1291 54.3222 84.1936 48.2782 92.6441 45.1094C101.095 41.9407 110.391 41.8497 118.902 44.8525C124.908 46.9713 130.797 51.2102 132.177 57.4274C132.531 59.0233 132.607 60.7733 133.604 62.0693C134.86 63.7032 137.264 64.0729 139.243 63.498C139.263 63.4923 139.283 63.4865 139.303 63.4806C139.637 63.3664 139.998 63.3552 140.339 63.4484C140.68 63.5415 140.985 63.7349 141.214 64.0033C141.444 64.2717 141.588 64.6029 141.628 64.9541C141.667 65.3052 141.6 65.6601 141.436 65.9729L139.737 69.142C141.879 69.6195 144.104 69.5722 146.224 69.0041C146.576 68.9117 146.948 68.9306 147.289 69.058C147.63 69.1855 147.924 69.4154 148.129 69.7161C148.334 70.0168 148.441 70.3736 148.436 70.7376C148.43 71.1016 148.312 71.455 148.097 71.7492C142.494 79.442 133.133 84.4096 123.581 84.3512C116.791 84.3098 109.932 81.9699 103.324 83.5312C100.768 84.1352 98.3793 85.3039 96.3336 86.9514C94.2879 88.5989 92.637 90.6836 91.5021 93.0524C90.3671 95.4212 89.7769 98.014 89.7747 100.641C89.7725 103.267 90.3585 105.861 91.4895 108.232C89.4596 106.011 85.5355 106.537 83.4591 108.714C81.3827 110.891 80.8452 114.14 81.0544 117.141C81.3743 121.732 83.1727 126.057 85.0687 130.266C69.173 129.766 54.1384 118.615 49.0777 103.534C43.9958 88.3894 49.3218 70.3339 61.8096 60.372Z" fill="#2F2E41"/>
<path opacity="0.2" d="M36.7791 208.257L47.2597 265.28L53.5484 265.828L36.7791 208.257Z" fill="black"/>
<path opacity="0.2" d="M152.226 203.956L141.745 265.239L135.457 265.828L152.226 203.956Z" fill="black"/>
<path d="M70.7489 41.181C68.7394 42.0201 66.6426 41.1005 65.7632 38.9945C64.8703 36.8564 65.7042 34.6858 67.746 33.8333C69.7879 32.9807 71.8474 33.9025 72.7546 36.0752C73.6482 38.2152 72.8234 40.3148 70.7489 41.181ZM66.8995 29.6247L65.3017 30.2919C64.9026 30.4566 64.4561 30.4654 64.0508 30.3167C63.6454 30.1681 63.3105 29.8726 63.1125 29.4889L63.0335 29.3343C61.3143 26.2338 61.1174 22.4655 62.4515 18.1401C63.6874 14.2599 64.2007 11.5311 63.1684 9.05884C61.9749 6.20049 59.4262 5.3051 56.1761 6.60217C54.9155 7.12853 54.5144 7.12014 53.5224 8.10421C53.3066 8.32087 53.0494 8.49186 52.7661 8.60698C52.4828 8.7221 52.1793 8.77899 51.8735 8.77426C51.5779 8.77078 51.2861 8.70782 51.0154 8.58912C50.7447 8.47042 50.5006 8.29841 50.2978 8.08337C49.9071 7.66895 49.6882 7.1217 49.6853 6.55214C49.6825 5.98258 49.8958 5.43314 50.2823 5.0148C51.9497 3.26938 53.9608 1.88853 56.1887 0.959392C63.1718 -1.95652 66.6871 2.3484 68.2958 6.2009C69.8692 9.96909 68.9841 13.4653 67.562 17.9933C66.3702 21.7558 66.4396 24.5438 67.7934 27.3158C67.8912 27.5254 67.9455 27.7526 67.9533 27.9837C67.961 28.2148 67.922 28.4451 67.8385 28.6607C67.755 28.8764 67.6288 29.0729 67.4675 29.2386C67.3061 29.4042 67.1129 29.5355 66.8996 29.6247L66.8995 29.6247Z" fill="#F30E08"/>
<path d="M244.216 58.4726H210.278C210.17 58.4733 210.063 58.4527 209.963 58.4119C209.864 58.3712 209.773 58.3111 209.696 58.2351C209.62 58.1591 209.559 58.0688 209.518 57.9692C209.476 57.8697 209.455 57.7629 209.455 57.6551C209.455 57.5473 209.476 57.4405 209.518 57.341C209.559 57.2415 209.62 57.1511 209.696 57.0751C209.773 56.9991 209.864 56.939 209.963 56.8983C210.063 56.8575 210.17 56.8369 210.278 56.8377H244.216C244.431 56.8391 244.638 56.9259 244.79 57.079C244.942 57.2322 245.028 57.4393 245.028 57.6551C245.028 57.8709 244.942 58.078 244.79 58.2312C244.638 58.3843 244.431 58.4711 244.216 58.4726Z" fill="#F4AAA9"/>
<path d="M287.268 58.745H253.33C253.222 58.7457 253.115 58.7252 253.015 58.6844C252.916 58.6437 252.825 58.5835 252.748 58.5076C252.672 58.4316 252.611 58.3412 252.57 58.2417C252.528 58.1421 252.507 58.0354 252.507 57.9276C252.507 57.8198 252.528 57.713 252.57 57.6135C252.611 57.5139 252.672 57.4236 252.748 57.3476C252.825 57.2716 252.916 57.2115 253.015 57.1707C253.115 57.13 253.222 57.1094 253.33 57.1101H287.268C287.375 57.1094 287.482 57.13 287.582 57.1707C287.682 57.2115 287.773 57.2716 287.849 57.3476C287.926 57.4236 287.986 57.5139 288.028 57.6135C288.069 57.713 288.091 57.8198 288.091 57.9276C288.091 58.0354 288.069 58.1421 288.028 58.2417C287.986 58.3412 287.926 58.4316 287.849 58.5076C287.773 58.5835 287.682 58.6437 287.582 58.6844C287.482 58.7252 287.375 58.7457 287.268 58.745Z" fill="#F4AAA9"/>
<path d="M330.32 59.0175H296.382C296.166 59.016 295.96 58.9292 295.808 58.7761C295.655 58.6229 295.57 58.4159 295.57 58.2C295.57 57.9842 295.655 57.7771 295.808 57.624C295.96 57.4708 296.166 57.3841 296.382 57.3826H330.32C330.428 57.3819 330.534 57.4025 330.634 57.4432C330.734 57.484 330.825 57.5441 330.901 57.62C330.978 57.696 331.039 57.7864 331.08 57.8859C331.121 57.9855 331.143 58.0922 331.143 58.2C331.143 58.3078 331.121 58.4146 331.08 58.5141C331.039 58.6137 330.978 58.704 330.901 58.78C330.825 58.856 330.734 58.9161 330.634 58.9569C330.534 58.9976 330.428 59.0182 330.32 59.0175H330.32Z" fill="#F4AAA9"/>
<path d="M373.372 59.2899H339.434C339.218 59.2884 339.012 59.2017 338.86 59.0485C338.707 58.8954 338.622 58.6883 338.622 58.4725C338.622 58.2566 338.707 58.0495 338.86 57.8964C339.012 57.7433 339.218 57.6565 339.434 57.655H373.372C373.588 57.6565 373.794 57.7433 373.946 57.8964C374.098 58.0495 374.184 58.2566 374.184 58.4725C374.184 58.6883 374.098 58.8954 373.946 59.0485C373.794 59.2017 373.588 59.2884 373.372 59.2899Z" fill="#F4AAA9"/>
<path d="M227.172 50.9494C230.656 50.9494 233.48 48.1254 233.48 44.6418C233.48 41.1582 230.656 38.3342 227.172 38.3342C223.689 38.3342 220.865 41.1582 220.865 44.6418C220.865 48.1254 223.689 50.9494 227.172 50.9494Z" fill="#F4AAA9"/>
<path d="M270.484 50.9494C273.968 50.9494 276.792 48.1254 276.792 44.6418C276.792 41.1582 273.968 38.3342 270.484 38.3342C267.001 38.3342 264.177 41.1582 264.177 44.6418C264.177 48.1254 267.001 50.9494 270.484 50.9494Z" fill="#F4AAA9"/>
<path d="M313.796 50.9494C317.28 50.9494 320.104 48.1254 320.104 44.6418C320.104 41.1582 317.28 38.3342 313.796 38.3342C310.313 38.3342 307.489 41.1582 307.489 44.6418C307.489 48.1254 310.313 50.9494 313.796 50.9494Z" fill="#F4AAA9"/>
<path d="M357.108 50.9494C360.592 50.9494 363.416 48.1254 363.416 44.6418C363.416 41.1582 360.592 38.3342 357.108 38.3342C353.625 38.3342 350.801 41.1582 350.801 44.6418C350.801 48.1254 353.625 50.9494 357.108 50.9494Z" fill="#F4AAA9"/>
</g>
<defs>
<clipPath id="clip0_201_301">
<rect width="400" height="265.828" fill="white"/>
</clipPath>
</defs>
</svg>
