<svg width="32" height="30" viewBox="0 0 32 30" fill="none" xmlns="http://www.w3.org/2000/svg">
<path d="M10.5537 4.9161C12.1156 5.47609 13.6368 6.14811 15.18 6.75229C15.2708 6.78786 15.5337 6.83562 15.5328 6.95333C15.5323 7.0174 15.4579 7.07914 15.4231 7.13022C15.3078 7.29976 15.1746 7.45369 15.0532 7.61931C14.6085 8.22572 14.1347 8.82223 13.6534 9.40418C11.952 11.4615 10.3907 13.6149 8.68285 15.6671C8.18281 16.2679 7.69088 16.8875 7.22534 17.5119C6.96907 17.8557 6.70866 18.0336 6.75818 18.4904C6.81885 19.0505 7.53948 19.4564 7.97967 19.7767C9.02068 20.5341 9.9911 21.3802 11.0148 22.1586C12.2721 23.1147 13.4984 24.1103 14.7398 25.0838C15.0637 25.3379 15.3827 25.5962 15.7096 25.8472C15.8914 25.9868 16.0696 26.1571 16.3114 26.2009C16.9912 26.3241 17.3693 25.9148 17.8543 25.5473C18.2058 25.281 18.5705 25.0215 18.9093 24.7407C20.4342 23.4766 22.039 22.2902 23.5896 21.0527C24.0538 20.6823 24.5231 20.3192 24.9781 19.9392C25.1741 19.7755 25.4142 19.642 25.5755 19.446C26.2313 18.6492 25.1852 17.9208 24.6695 17.379C23.6001 16.2553 22.5098 15.1424 21.4085 14.0458C21.1076 13.7462 20.7996 13.4442 20.516 13.1307C20.4412 13.048 20.2467 12.9075 20.2303 12.8004C20.2162 12.7087 20.4107 12.6638 20.4762 12.6282C20.744 12.483 21.0608 12.4059 21.3429 12.283C22.3135 11.8602 23.3124 11.469 24.304 11.0905C24.5541 10.995 24.8029 10.8963 25.0503 10.7953C25.1324 10.7618 25.2593 10.7331 25.283 10.6404C25.3346 10.4382 24.9982 10.0688 24.9065 9.88691C24.524 9.1288 24.0447 8.41382 23.6469 7.66378C23.1389 6.70621 22.6048 5.75706 22.0576 4.81817C21.9164 4.57591 21.7941 4.3251 21.6494 4.08453C21.5975 3.99825 21.5464 3.95503 21.4477 3.90442C21.2444 3.8002 20.8212 3.82594 20.5966 3.83808C19.8347 3.8793 19.0707 3.90102 18.3096 3.94916C16.146 4.08601 13.9734 4.10133 11.8096 4.23816C11.2504 4.27353 10.6843 4.28333 10.1244 4.30597C8.94013 4.35386 9.81526 4.65138 10.5537 4.9161Z" fill="black"/>
<path d="M10.5637 4.95337C12.1319 5.5139 13.6592 6.18657 15.2085 6.79133C15.2997 6.82694 15.5637 6.87474 15.5628 6.99256C15.5622 7.0567 15.4876 6.99096 15.4527 7.04209C15.3368 7.21179 15.3305 7.24587 15.2085 7.41165C14.762 8.01864 14.1622 8.74219 13.679 9.3247C12.1616 11.1538 12.4076 10.8149 6.88147 17.9334C11.3742 16.1733 15.5406 14.7895 20.03 13.0175C21.4015 12.4762 22.9917 11.6579 24.3692 11.1337C24.6203 11.0382 24.8701 10.9393 25.1185 10.8382C25.2009 10.8047 25.3283 10.776 25.352 10.6832C25.4039 10.4807 25.0662 10.1111 24.974 9.92897C24.5901 9.17013 24.1088 8.45446 23.7094 7.7037C23.1994 6.7452 22.6631 5.79515 22.1137 4.85535C21.9719 4.61285 21.8492 4.3618 21.7039 4.12101C21.6518 4.03464 21.5467 3.8913 21.4476 3.84064C21.2435 3.73631 20.8724 3.86216 20.6469 3.87432C19.8819 3.91557 19.1149 3.93731 18.3507 3.9855C16.1784 4.12248 13.9971 4.13782 11.8247 4.27478C11.2632 4.31018 10.6948 4.32 10.1327 4.34266C8.94367 4.39059 9.82231 4.6884 10.5637 4.95337Z" fill="#F30E08"/>
<g filter="url(#filter0_d_92_139)">
<path d="M9.76923 4.65114C11.6034 5.48673 13.4875 6.26245 15.383 6.96412C21.9939 9.41119 17.9584 7.85689 25.2618 10.6638C25.3141 10.4608 24.9733 10.0902 24.8803 9.9077C24.4928 9.147 24.0072 8.42958 23.6041 7.67699C23.0895 6.71615 22.5483 5.76377 21.9939 4.82167C21.8508 4.57859 21.7269 4.32692 21.5803 4.08554C21.5277 3.99896 21.5477 3.88903 21.4477 3.83825C21.2417 3.73367 20.7412 3.82606 20.5136 3.83825C19.7416 3.8796 18.9676 3.9014 18.1965 3.9497C16.0043 4.08702 13.8031 4.10239 11.6108 4.23969C11.0442 4.27518 10.4706 4.28502 9.90337 4.30773C9.60084 4.31985 9.17597 4.38087 9.76923 4.65114Z" fill="#F30E08"/>
</g>
<defs>
<filter id="filter0_d_92_139" x="5.47107" y="3.78894" width="23.7961" height="14.8749" filterUnits="userSpaceOnUse" color-interpolation-filters="sRGB">
<feFlood flood-opacity="0" result="BackgroundImageFix"/>
<feColorMatrix in="SourceAlpha" type="matrix" values="0 0 0 0 0 0 0 0 0 0 0 0 0 0 0 0 0 0 127 0" result="hardAlpha"/>
<feOffset dy="4"/>
<feGaussianBlur stdDeviation="2"/>
<feComposite in2="hardAlpha" operator="out"/>
<feColorMatrix type="matrix" values="0 0 0 0 0 0 0 0 0 0 0 0 0 0 0 0 0 0 0.25 0"/>
<feBlend mode="normal" in2="BackgroundImageFix" result="effect1_dropShadow_92_139"/>
<feBlend mode="normal" in="SourceGraphic" in2="effect1_dropShadow_92_139" result="shape"/>
</filter>
</defs>
</svg>
