<svg width="250" height="213" viewBox="0 0 250 213" fill="none" xmlns="http://www.w3.org/2000/svg">
<g clip-path="url(#clip0_201_679)">
<path d="M10.2036 83.9781L125.121 3.44995L240.911 89.7081L131.042 151.291L71.3931 138.436L10.2036 83.9781Z" fill="#E6E6E6"/>
<path d="M76.4278 189.329H19.6558C19.3072 189.329 18.9619 189.265 18.6397 189.139C18.3175 189.013 18.0247 188.828 17.7781 188.595C17.5314 188.362 17.3357 188.086 17.2022 187.781C17.0687 187.477 17 187.15 17 186.821C17 186.491 17.0687 186.165 17.2022 185.86C17.3357 185.556 17.5314 185.279 17.7781 185.046C18.0247 184.813 18.3175 184.629 18.6397 184.503C18.9619 184.377 19.3072 184.313 19.6558 184.313H76.4278C76.7764 184.313 77.1217 184.377 77.4439 184.503C77.7661 184.629 78.0589 184.813 78.3055 185.046C78.5522 185.279 78.7479 185.556 78.8814 185.86C79.0149 186.165 79.0836 186.491 79.0836 186.821C79.0836 187.15 79.0149 187.477 78.8814 187.781C78.7479 188.086 78.5522 188.362 78.3055 188.595C78.0589 188.828 77.7661 189.013 77.4439 189.139C77.1217 189.265 76.7764 189.329 76.4278 189.329Z" fill="#F30E08"/>
<path d="M40.0243 178.546H19.6558C19.3072 178.547 18.9619 178.482 18.6397 178.357C18.3175 178.231 18.0247 178.046 17.7781 177.813C17.5314 177.58 17.3357 177.304 17.2022 176.999C17.0687 176.695 17 176.368 17 176.039C17 175.709 17.0687 175.383 17.2022 175.078C17.3357 174.774 17.5314 174.497 17.7781 174.264C18.0247 174.031 18.3175 173.847 18.6397 173.721C18.9619 173.595 19.3072 173.53 19.6558 173.531H40.0243C40.3729 173.53 40.7182 173.595 41.0404 173.721C41.3626 173.847 41.6554 174.031 41.902 174.264C42.1487 174.497 42.3444 174.774 42.4779 175.078C42.6114 175.383 42.6801 175.709 42.6801 176.039C42.6801 176.368 42.6114 176.695 42.4779 176.999C42.3444 177.304 42.1487 177.58 41.902 177.813C41.6554 178.046 41.3626 178.231 41.0404 178.357C40.7182 178.482 40.3729 178.547 40.0243 178.546Z" fill="#F30E08"/>
<path d="M126.737 128.831C126.306 128.832 125.878 128.753 125.479 128.598L54.6055 100.793V13.7577C54.6064 12.988 54.9302 12.2502 55.5057 11.706C56.0813 11.1618 56.8617 10.8556 57.6756 10.8547H193.641C194.454 10.8556 195.235 11.1618 195.81 11.706C196.386 12.2502 196.71 12.988 196.711 13.7577V100.854L196.577 100.908L128.034 128.585C127.623 128.748 127.182 128.832 126.737 128.831Z" fill="white"/>
<path d="M126.737 129.038C126.277 129.039 125.821 128.954 125.395 128.79L54.386 100.931V13.7575C54.387 12.9329 54.7339 12.1423 55.3505 11.5592C55.9672 10.9761 56.8033 10.6482 57.6755 10.6472H193.64C194.512 10.6482 195.349 10.9761 195.965 11.5592C196.582 12.1423 196.929 12.9329 196.93 13.7575V100.99L128.119 128.775C127.682 128.949 127.212 129.039 126.737 129.038ZM55.2632 100.377L125.729 128.023C126.387 128.275 127.123 128.271 127.777 128.012L196.053 100.443V13.7575C196.052 13.1528 195.798 12.5731 195.345 12.1455C194.893 11.7179 194.28 11.4773 193.64 11.4766H57.6755C57.0359 11.4773 56.4228 11.7179 55.9706 12.1455C55.5183 12.5731 55.264 13.1528 55.2632 13.7575L55.2632 100.377Z" fill="#3F3D56"/>
<path d="M246.93 80.3174H246.842L196.491 100.646L127.601 128.46C127.332 128.567 127.043 128.623 126.751 128.625C126.459 128.626 126.169 128.573 125.899 128.468L54.8246 100.588L3.23679 80.3506L3.15798 80.3174H3.07018C2.25619 80.3182 1.4758 80.6244 0.900228 81.1686C0.324654 81.7128 0.00090318 82.4507 0 83.2203V209.29C0.000904339 210.059 0.324655 210.797 0.900228 211.342C1.4758 211.886 2.25619 212.192 3.07018 212.193H246.93C247.744 212.192 248.524 211.886 249.1 211.342C249.675 210.797 249.999 210.059 250 209.29V83.2203C249.999 82.4507 249.675 81.7128 249.1 81.1686C248.524 80.6244 247.744 80.3182 246.93 80.3174ZM249.123 209.29C249.123 209.84 248.891 210.367 248.48 210.756C248.069 211.145 247.511 211.363 246.93 211.363H3.07018C2.48863 211.363 1.93098 211.145 1.51976 210.756C1.10855 210.367 0.877425 209.84 0.877193 209.29V83.2203C0.877988 82.6841 1.09797 82.1689 1.49113 81.7825C1.8843 81.3961 2.42022 81.1683 2.98687 81.1468L54.8246 101.484L125.562 129.236C126.327 129.53 127.185 129.526 127.947 129.223L196.491 101.546L247.018 81.1468C247.583 81.1699 248.118 81.3983 248.51 81.7845C248.902 82.1707 249.122 82.685 249.123 83.2203V209.29Z" fill="#3F3D56"/>
</g>
<defs>
<clipPath id="clip0_201_679">
<rect width="250" height="212.193" fill="white"/>
</clipPath>
</defs>
</svg>
