<svg width="130" height="143" viewBox="0 0 130 143" fill="none" xmlns="http://www.w3.org/2000/svg">
<g clip-path="url(#clip0_7_87)">
<path d="M101.555 141.782H26.222C19.8899 141.782 14.7384 136.521 14.7384 130.053V53.1089C14.7384 46.6413 19.8899 41.3796 26.222 41.3796H101.555C107.887 41.3796 113.038 46.6413 113.038 53.1089V130.053C113.038 136.521 107.887 141.782 101.555 141.782ZM26.222 43.2563C20.8946 43.2563 16.5758 47.6675 16.5758 53.1089V130.053C16.5758 135.495 20.8946 139.906 26.222 139.906H78.9907C96.7799 139.906 111.201 125.176 111.201 107.006V53.1089C111.201 47.6675 106.882 43.2563 101.555 43.2563H26.222V43.2563Z" fill="#F4AAA9"/>
<path d="M34.3436 51.2577C30.7782 51.2577 27.8777 54.2202 27.8777 57.8619V68.199C27.8777 71.8407 30.7782 74.8033 34.3436 74.8033H44.4642C48.0296 74.8033 50.9301 71.8407 50.9301 68.199V57.8619C50.9301 54.2202 48.0296 51.2577 44.4642 51.2577H34.3436Z" fill="#F4AAA9"/>
<path d="M34.3436 80.358C30.7782 80.358 27.8777 83.3205 27.8777 86.9622V97.2993C27.8777 100.941 30.7782 103.904 34.3436 103.904H44.4642C48.0296 103.904 50.9301 100.941 50.9301 97.2993V86.9622C50.9301 83.3205 48.0296 80.358 44.4642 80.358H34.3436Z" fill="#F4AAA9"/>
<path d="M34.3436 109.458C30.7782 109.458 27.8777 112.421 27.8777 116.063V126.4C27.8777 130.041 30.7782 133.004 34.3436 133.004H44.4642C48.0296 133.004 50.9301 130.041 50.9301 126.4V116.063C50.9301 112.421 48.0296 109.458 44.4642 109.458H34.3436Z" fill="#F4AAA9"/>
<path d="M41.0549 26.0374C36.5623 26.0374 32.9076 29.7703 32.9076 34.359V47.384C32.9076 51.9727 36.5623 55.7056 41.0549 55.7056H53.8071C58.2997 55.7056 61.9544 51.9727 61.9544 47.384V34.359C61.9544 29.7703 58.2997 26.0374 53.8071 26.0374H41.0549Z" fill="#F30E08"/>
<path d="M83.0385 62.437C78.546 62.437 74.8912 66.1699 74.8912 70.7586V83.7837C74.8912 88.3723 78.546 92.1052 83.0385 92.1052H95.7907C100.283 92.1052 103.938 88.3723 103.938 83.7837V70.7586C103.938 66.1699 100.283 62.437 95.7907 62.437H83.0385Z" fill="#F30E08"/>
<path d="M54.6201 109.098L65.1212 109.437L75.0697 111.695C75.0697 111.695 74.0748 112.937 77.391 116.324C77.391 116.324 81.8125 124.227 78.7174 131.905L77.391 162.614C77.391 162.614 81.2584 184.262 78.3035 191.152L74.3981 191.402L67.7896 162.864L64.5686 132.13L63.021 162.388C63.021 162.388 68.9413 183.157 65.2029 191.402L60.9731 191.152L53.7358 162.388C53.7358 162.388 50.6408 129.195 51.0829 122.872C51.5251 116.55 54.6201 109.098 54.6201 109.098H54.6201Z" fill="#2F2E41"/>
<path d="M89.8853 60.5723C88.4498 60.952 87.5873 62.4484 87.9591 63.9146C88.1294 64.5865 88.5307 65.1331 89.0521 65.4941L89.052 65.4979L88.8483 70.536L92.623 72.3203L92.9244 64.5674L92.8981 64.5682C93.2254 63.9726 93.3385 63.2531 93.1576 62.5397C92.7859 61.0735 91.3208 60.1927 89.8853 60.5723V60.5723Z" fill="#A0616A"/>
<path d="M68.7884 78.5532C67.9954 77.7504 67.5354 76.662 67.5182 75.4784C67.4951 73.8905 68.2741 72.4494 69.6021 71.6234C71.1313 70.6721 73.0436 70.7684 74.474 71.8683L86.3272 80.9839L88.4393 67.8522L92.9738 69.3431L91.8919 86.4424C91.8161 87.6385 91.1543 88.6922 90.1214 89.261C89.0884 89.8298 87.863 89.8156 86.843 89.2229L69.7133 79.2686C69.3691 79.0686 69.0593 78.8275 68.7884 78.5532V78.5532Z" fill="#575A89"/>
<path d="M50.7143 53.2271C51.472 54.529 51.053 56.2119 49.7783 56.9858C49.1942 57.3405 48.5325 57.44 47.9133 57.3215L47.9108 57.3242L44.5826 61.0485L40.6721 59.6011L45.8023 53.8787L45.8204 53.8982C45.9985 53.2399 46.4141 52.6476 47.0343 52.2711C48.3089 51.4971 49.9565 51.9252 50.7143 53.2271Z" fill="#A0616A"/>
<path d="M52.1519 81.0103L33.1257 75.761C31.9929 75.4484 31.1128 74.5772 30.7713 73.4305C30.4299 72.2838 30.6862 71.0596 31.4569 70.1557L42.4753 57.2347L46.7232 59.4367L39.1712 70.281L53.8722 72.3315C55.6462 72.579 57.0705 73.8858 57.5008 75.661C57.8744 77.2026 57.4343 78.7862 56.3234 79.8972C55.4953 80.7253 54.4183 81.1675 53.3018 81.1673C52.9204 81.1673 52.5341 81.1157 52.1519 81.0103H52.1519Z" fill="#575A89"/>
<path d="M79.2771 113.616L52.6713 114.863C51.9405 113.729 52.1384 112.025 53.1618 109.891C57.0256 101.833 54.0912 86.5896 52.1172 78.6521C51.5633 76.425 53.0501 74.211 55.2886 73.9824L57.7972 73.7262L60.116 66.4961H68.2373L71.6066 70.4276L77.3244 73.9755C76.2837 84.9252 71.849 100.387 78.1667 108.141C79.5484 109.837 79.9402 111.671 79.2771 113.616Z" fill="#575A89"/>
<path d="M63.1437 66.6631C67.5125 66.6631 71.0541 63.0457 71.0541 58.5835C71.0541 54.1212 67.5125 50.5038 63.1437 50.5038C58.7749 50.5038 55.2333 54.1212 55.2333 58.5835C55.2333 63.0457 58.7749 66.6631 63.1437 66.6631Z" fill="#A0616A"/>
<path d="M72.095 53.4117C73.1956 49.3133 61.2004 45.7988 58.8694 49.0993C58.5452 48.63 57.3474 48.345 56.7978 48.489C56.2481 48.6329 55.7859 48.9927 55.335 49.3411C54.7149 49.8276 54.0723 50.3314 53.6918 51.0309C53.3085 51.7276 53.2493 52.6776 53.7651 53.2822C54.1737 53.7629 54.8919 56.3176 55.5063 56.4443C55.9347 56.5335 56.2955 56.6055 56.6055 56.6573C56.8817 56.2457 57.5861 55.7285 57.5354 55.2305C57.9525 55.5126 57.8001 56.009 57.716 56.5163C57.436 58.2055 51.1266 71.2819 54.7403 67.4286C55.0982 67.6445 55.5407 67.846 56.0509 68.0302C56.9161 66.6973 57.6264 65.1255 58.0943 63.4817L58.0976 63.5121C58.2587 64.9406 59.2808 66.1127 60.633 66.5129C66.0574 68.118 70.4452 65.7627 71.9546 61.5154C71.402 60.3696 71.1613 60.4941 71.2108 60.46C71.9005 59.9852 72.8486 60.2957 73.145 61.0895C73.2324 61.3235 73.3119 61.5234 73.3807 61.6737C74.1671 58.8007 75.1023 59.2153 72.095 53.4117H72.095Z" fill="#2F2E41"/>
<path d="M68.3529 50.4382L67.7988 47.5448C67.7522 47.3016 67.708 47.0377 67.8154 46.8155C67.9533 46.5299 68.308 46.4116 68.6165 46.4571C68.9251 46.5026 69.1559 46.7905 69.4629 46.8459C70.5302 47.0387 71.9411 45.9618 72.3235 48.686C72.483 49.8218 74.2574 49.9418 74.85 50.9166C75.4426 51.8913 75.5154 53.2984 74.7066 54.0947C74.0607 54.7308 73.0234 54.8042 72.1845 54.4793C71.3456 54.1544 70.6723 53.4981 70.0842 52.8061C69.4961 52.114 68.9635 51.3651 68.2852 50.7654" fill="#2F2E41"/>
<path d="M72.5175 54.8389C70.353 54.5301 68.8776 53.726 68.1323 52.4492C67.1569 50.7779 67.8103 48.9377 67.8386 48.8601L68.2961 49.0339C68.29 49.0508 67.6973 50.7353 68.5543 52.1982C69.2209 53.3362 70.5771 54.0586 72.585 54.3451L72.5175 54.8389Z" fill="#F30E08"/>
<path d="M82.6751 23.576C76.3117 23.576 71.134 18.2875 71.134 11.788C71.134 5.28849 76.3117 0 82.6751 0C89.0385 0 94.2162 5.28849 94.2162 11.788C94.2162 18.2875 89.0385 23.576 82.6751 23.576ZM82.6751 4.71521C78.8566 4.71521 75.7505 7.88784 75.7505 11.788C75.7505 15.6882 78.8566 18.8608 82.6751 18.8608C86.4936 18.8608 89.5998 15.6882 89.5998 11.788C89.5998 7.88784 86.4936 4.71521 82.6751 4.71521Z" fill="#F4AAA9"/>
<path d="M100.432 31.587C99.8662 31.587 99.2993 31.3764 98.8541 30.9493L88.0219 20.5807C87.091 19.6908 87.0436 18.1989 87.916 17.2492C88.7861 16.296 90.2468 16.2488 91.1777 17.141L102.01 27.5096C102.941 28.3994 102.988 29.8913 102.116 30.8411C101.662 31.3372 101.047 31.587 100.432 31.587Z" fill="#F4AAA9"/>
</g>
<defs>
<clipPath id="clip0_7_87">
<rect width="130" height="143" fill="white"/>
</clipPath>
</defs>
</svg>
