<svg width="162" height="124" viewBox="0 0 162 124" fill="none" xmlns="http://www.w3.org/2000/svg">
<g clip-path="url(#clip0_7_118)">
<path d="M81.5849 8.18022H80.6859V-17.9035C80.6859 -19.886 80.3173 -21.8491 79.6009 -23.6807C78.8846 -25.5123 77.8346 -27.1765 76.511 -28.5784C75.1874 -29.9802 73.6161 -31.0922 71.8867 -31.8509C70.1573 -32.6095 68.3037 -33 66.4319 -33H14.2541C12.3822 -33 10.5287 -32.6095 8.79928 -31.8509C7.06989 -31.0922 5.49853 -29.9802 4.17492 -28.5784C2.8513 -27.1765 1.80135 -25.5123 1.08502 -23.6807C0.368686 -21.8491 -2.92812e-06 -19.886 0 -17.9035V125.194C-1.75687e-06 127.176 0.368689 129.139 1.08502 130.971C1.80136 132.802 2.85131 134.467 4.17492 135.869C5.49854 137.27 7.06989 138.382 8.79928 139.141C10.5287 139.9 12.3822 140.29 14.2541 140.29H66.4319C68.3037 140.29 70.1573 139.9 71.8867 139.141C73.616 138.382 75.1874 137.27 76.511 135.869C77.8346 134.467 78.8846 132.802 79.6009 130.971C80.3173 129.139 80.6859 127.176 80.6859 125.194V26.747H81.5849V8.18022Z" fill="#E6E6E6"/>
<path d="M67.007 -29.0724H60.196C60.5093 -28.2591 60.6288 -27.3767 60.5442 -26.503C60.4596 -25.6292 60.1734 -24.7909 59.7108 -24.0619C59.2482 -23.3329 58.6234 -22.7355 57.8915 -22.3225C57.1596 -21.9094 56.343 -21.6934 55.5137 -21.6933H25.6217C24.7923 -21.6934 23.9758 -21.9094 23.2438 -22.3225C22.5119 -22.7355 21.8872 -23.3329 21.4246 -24.0619C20.962 -24.7909 20.6758 -25.6292 20.5911 -26.503C20.5065 -27.3767 20.6261 -28.2591 20.9393 -29.0724H14.5779C13.18 -29.0724 11.7958 -28.7808 10.5043 -28.2142C9.21282 -27.6477 8.03935 -26.8172 7.05089 -25.7704C6.06243 -24.7235 5.27835 -23.4807 4.7434 -22.1128C4.20845 -20.745 3.93311 -19.279 3.93311 -17.7985V125.089C3.93311 126.569 4.20844 128.035 4.74339 129.403C5.27834 130.771 6.06243 132.014 7.05089 133.061C8.03935 134.107 9.21282 134.938 10.5043 135.504C11.7958 136.071 13.18 136.363 14.5779 136.363H67.007C68.4049 136.363 69.7891 136.071 71.0806 135.504C72.372 134.938 73.5455 134.107 74.534 133.061C75.5224 132.014 76.3065 130.771 76.8415 129.403C77.3764 128.035 77.6517 126.569 77.6517 125.089V-17.7985C77.6517 -19.279 77.3764 -20.745 76.8415 -22.1128C76.3065 -23.4807 75.5224 -24.7235 74.534 -25.7704C73.5455 -26.8172 72.372 -27.6477 71.0805 -28.2142C69.7891 -28.7808 68.4049 -29.0724 67.007 -29.0724Z" fill="#F4AAA9"/>
<path d="M25.3458 -0.0249939H22.2154C22.1054 -0.0249933 21.9998 0.021319 21.922 0.103752C21.8441 0.186184 21.8004 0.297985 21.8004 0.414562V1.86979C21.8004 1.98637 21.8441 2.09817 21.922 2.1806C21.9998 2.26304 22.1054 2.30935 22.2154 2.30935H22.7342V4.48978H24.8271V2.30935H25.3458C25.4559 2.30935 25.5615 2.26304 25.6393 2.1806C25.7171 2.09817 25.7608 1.98637 25.7608 1.86979V0.414562C25.7608 0.297985 25.7171 0.186185 25.6393 0.103752C25.5615 0.0213189 25.4559 -0.0249933 25.3458 -0.0249939Z" fill="#E6E6E6"/>
<path d="M28.4813 13.2933C26.5642 10.3222 25.5841 6.78465 25.6815 3.18749C25.6832 3.10449 25.6578 3.02341 25.6095 2.95801C25.5612 2.89262 25.493 2.84695 25.4165 2.82875V2.19995H22.1104V2.82001H22.0649C21.9749 2.82013 21.8887 2.8581 21.8251 2.92557C21.7616 2.99304 21.726 3.08447 21.7261 3.17976C21.7261 3.18849 21.7264 3.19721 21.727 3.20591C21.9875 7.05124 21.108 10.4997 19.0885 13.5512C18.9723 13.7265 18.9129 13.9371 18.9193 14.1512L19.2808 25.9946C19.2895 26.2587 19.3942 26.5091 19.573 26.6935C19.7518 26.8779 19.991 26.982 20.2405 26.9841H27.7184C27.9708 26.9819 28.2125 26.8754 28.3919 26.6873C28.5712 26.4992 28.6742 26.2444 28.6788 25.9771L28.8181 14.4782C28.8222 14.0561 28.7047 13.6428 28.4813 13.2933Z" fill="#E6E6E6"/>
<path d="M27.2975 17.2272H20.7886C20.6923 17.2272 20.5971 17.2493 20.5095 17.2919C20.422 17.3345 20.3442 17.3967 20.2814 17.4741C20.2187 17.5516 20.1725 17.6425 20.1461 17.7406C20.1196 17.8387 20.1135 17.9418 20.1281 18.0426L21.1117 24.8138H26.7596L27.9544 18.0654C27.9725 17.9632 27.9691 17.858 27.9444 17.7574C27.9198 17.6567 27.8745 17.563 27.8118 17.483C27.7491 17.403 27.6705 17.3386 27.5816 17.2944C27.4927 17.2502 27.3957 17.2272 27.2975 17.2272Z" fill="#F4AAA9"/>
<path d="M60.1931 35.4532H57.0627C56.9527 35.4532 56.8471 35.4995 56.7693 35.5819C56.6914 35.6644 56.6477 35.7762 56.6477 35.8927V37.348C56.6477 37.4645 56.6914 37.5763 56.7693 37.6588C56.8471 37.7412 56.9527 37.7875 57.0627 37.7875H57.5815V39.9679H59.6744V37.7875H60.1931C60.3032 37.7875 60.4087 37.7412 60.4866 37.6588C60.5644 37.5763 60.6081 37.4645 60.6081 37.348V35.8927C60.6081 35.7762 60.5644 35.6644 60.4866 35.5819C60.4087 35.4995 60.3032 35.4532 60.1931 35.4532Z" fill="#E6E6E6"/>
<path d="M63.3285 48.7714C61.4113 45.8003 60.4312 42.2628 60.5286 38.6656C60.5304 38.5826 60.5049 38.5016 60.4566 38.4362C60.4084 38.3708 60.3402 38.3251 60.2637 38.3069V37.6781H56.9576V38.2982H56.912C56.8675 38.2982 56.8234 38.3076 56.7823 38.3257C56.7411 38.3438 56.7038 38.3703 56.6723 38.4037C56.6408 38.4371 56.6159 38.4768 56.5989 38.5204C56.5819 38.564 56.5732 38.6107 56.5732 38.6579C56.5733 38.6666 56.5736 38.6754 56.5742 38.6841C56.8346 42.5294 55.9551 45.9778 53.9357 49.0293C53.8194 49.2047 53.7601 49.4152 53.7665 49.6294L54.128 61.4727C54.1366 61.7369 54.2413 61.9873 54.4202 62.1716C54.599 62.356 54.8381 62.4601 55.0877 62.4622H62.5656C62.818 62.4601 63.0597 62.3536 63.239 62.1655C63.4184 61.9774 63.5214 61.7225 63.5259 61.4553L63.6652 49.9564C63.6694 49.5343 63.5519 49.1209 63.3285 48.7714Z" fill="#E6E6E6"/>
<path d="M62.1447 52.7054H55.6358C55.5394 52.7054 55.4442 52.7275 55.3567 52.7701C55.2691 52.8127 55.1913 52.8749 55.1286 52.9523C55.0659 53.0298 55.0197 53.1207 54.9932 53.2188C54.9668 53.3169 54.9606 53.4199 54.9753 53.5208L55.9589 60.292H61.6068L62.8015 53.5436C62.8196 53.4414 62.8162 53.3362 62.7916 53.2355C62.7669 53.1349 62.7216 53.0412 62.6589 52.9612C62.5962 52.8812 62.5176 52.8168 62.4288 52.7725C62.3399 52.7283 62.2429 52.7054 62.1447 52.7054H62.1447Z" fill="#F4AAA9"/>
<path d="M20.9449 85.6089H19.4601C19.4078 85.6089 19.3578 85.6309 19.3208 85.67C19.2839 85.7091 19.2632 85.7621 19.2632 85.8174V86.5077C19.2632 86.563 19.2839 86.616 19.3208 86.6551C19.3578 86.6942 19.4078 86.7162 19.4601 86.7162H19.7061V87.7505H20.6989V86.7162H20.9449C20.9971 86.7162 21.0472 86.6942 21.0841 86.6551C21.1211 86.616 21.1418 86.563 21.1418 86.5077V85.8174C21.1418 85.7621 21.1211 85.7091 21.0841 85.67C21.0472 85.6309 20.9971 85.6089 20.9449 85.6089Z" fill="#E6E6E6"/>
<path d="M22.4323 91.9264C21.5229 90.517 21.058 88.839 21.1042 87.1327C21.105 87.0934 21.093 87.0549 21.07 87.0239C21.0471 86.9929 21.0148 86.9712 20.9785 86.9626V86.6643H19.4103V86.9584H19.3887C19.3675 86.9585 19.3466 86.9629 19.3271 86.9715C19.3076 86.9801 19.2899 86.9927 19.2749 87.0085C19.26 87.0243 19.2482 87.0432 19.2401 87.0639C19.2321 87.0845 19.2279 87.1067 19.228 87.1291C19.228 87.1332 19.2281 87.1374 19.2284 87.1415C19.3732 88.8826 18.9296 90.6216 17.9768 92.0487C17.9217 92.1319 17.8936 92.2318 17.8966 92.3333L18.068 97.9512C18.0722 98.0765 18.1218 98.1953 18.2067 98.2827C18.2915 98.3702 18.4049 98.4196 18.5233 98.4205H22.0704C22.1901 98.4195 22.3048 98.369 22.3899 98.2798C22.4749 98.1906 22.5238 98.0697 22.5259 97.9429L22.592 92.4884C22.594 92.2882 22.5383 92.0922 22.4323 91.9264Z" fill="#E6E6E6"/>
<path d="M21.9218 93.9915H18.5372V95.7837H21.9218V93.9915Z" fill="#F4AAA9"/>
<path d="M27.8572 85.6089H26.3723C26.3201 85.6089 26.27 85.6309 26.2331 85.67C26.1962 85.7091 26.1754 85.7621 26.1754 85.8174V86.5077C26.1754 86.563 26.1962 86.616 26.2331 86.6551C26.27 86.6942 26.3201 86.7162 26.3723 86.7162H26.6183V87.7505H27.6111V86.7162H27.8572C27.9094 86.7162 27.9595 86.6942 27.9964 86.6551C28.0333 86.616 28.054 86.563 28.054 86.5077V85.8174C28.054 85.7621 28.0333 85.7091 27.9964 85.67C27.9595 85.6309 27.9094 85.6089 27.8572 85.6089Z" fill="#E6E6E6"/>
<path d="M29.3444 91.9264C28.435 90.517 27.9701 88.839 28.0163 87.1327C28.0171 87.0934 28.0051 87.0549 27.9822 87.0239C27.9592 86.9929 27.9269 86.9712 27.8906 86.9626V86.6643H26.3224V86.9584H26.3008C26.2797 86.9585 26.2587 86.9629 26.2392 86.9715C26.2197 86.9801 26.202 86.9927 26.1871 87.0085C26.1721 87.0243 26.1603 87.0432 26.1522 87.0639C26.1442 87.0845 26.1401 87.1067 26.1401 87.1291C26.1401 87.1332 26.1402 87.1374 26.1405 87.1415C26.2853 88.8826 25.8417 90.6216 24.889 92.0487C24.8338 92.1319 24.8057 92.2318 24.8087 92.3333L24.9802 97.9512C24.9843 98.0765 25.0339 98.1953 25.1188 98.2827C25.2036 98.3702 25.317 98.4196 25.4354 98.4205H28.9825C29.1023 98.4195 29.2169 98.369 29.302 98.2798C29.3871 98.1906 29.4359 98.0697 29.4381 97.9429L29.5041 92.4884C29.5061 92.2882 29.4504 92.0922 29.3444 91.9264Z" fill="#E6E6E6"/>
<path d="M28.8339 93.9915H25.4493V95.7837H28.8339V93.9915Z" fill="#F4AAA9"/>
<path d="M34.7693 85.6089H33.2844C33.2322 85.6089 33.1821 85.6309 33.1452 85.67C33.1083 85.7091 33.0875 85.7621 33.0875 85.8174V86.5077C33.0875 86.563 33.1083 86.616 33.1452 86.6551C33.1821 86.6942 33.2322 86.7162 33.2844 86.7162H33.5305V87.7505H34.5232V86.7162H34.7693C34.8215 86.7162 34.8716 86.6942 34.9085 86.6551C34.9454 86.616 34.9661 86.563 34.9661 86.5077V85.8174C34.9661 85.7621 34.9454 85.7091 34.9085 85.67C34.8716 85.6309 34.8215 85.6089 34.7693 85.6089Z" fill="#E6E6E6"/>
<path d="M36.2566 91.9264C35.3472 90.517 34.8823 88.839 34.9285 87.1327C34.9294 87.0934 34.9173 87.0549 34.8944 87.0239C34.8715 86.9929 34.8391 86.9712 34.8029 86.9626V86.6643H33.2346V86.9584H33.213C33.1919 86.9585 33.171 86.9629 33.1515 86.9715C33.1319 86.9801 33.1142 86.9927 33.0993 87.0085C33.0844 87.0243 33.0725 87.0432 33.0645 87.0639C33.0564 87.0845 33.0523 87.1067 33.0523 87.1291C33.0523 87.1332 33.0525 87.1374 33.0528 87.1415C33.1975 88.8826 32.754 90.6216 31.8012 92.0487C31.7461 92.1319 31.7179 92.2318 31.7209 92.3333L31.8924 97.9512C31.8965 98.0765 31.9462 98.1953 32.031 98.2827C32.1158 98.3702 32.2293 98.4196 32.3476 98.4205H35.8948C36.0145 98.4195 36.1291 98.369 36.2142 98.2798C36.2993 98.1906 36.3481 98.0697 36.3503 97.9429L36.4164 92.4884C36.4183 92.2882 36.3626 92.0922 36.2566 91.9264Z" fill="#E6E6E6"/>
<path d="M35.7461 93.9915H32.3616V95.7837H35.7461V93.9915Z" fill="#F4AAA9"/>
<path d="M54.7549 71.8838H51.6245C51.57 71.8838 51.516 71.8952 51.4657 71.9173C51.4153 71.9393 51.3696 71.9717 51.331 72.0125C51.2925 72.0533 51.2619 72.1018 51.2411 72.1551C51.2202 72.2085 51.2095 72.2656 51.2095 72.3233V73.7786C51.2095 73.8952 51.2532 74.007 51.331 74.0894C51.4089 74.1718 51.5144 74.2181 51.6245 74.2181H52.1433V76.3986H54.2361V74.2181H54.7549C54.8649 74.2181 54.9705 74.1718 55.0483 74.0894C55.1262 74.007 55.1699 73.8952 55.1699 73.7786V72.3233C55.1699 72.2656 55.1592 72.2085 55.1383 72.1551C55.1175 72.1018 55.0869 72.0533 55.0483 72.0125C55.0098 71.9717 54.9641 71.9393 54.9137 71.9173C54.8634 71.8952 54.8094 71.8838 54.7549 71.8838Z" fill="#E6E6E6"/>
<path d="M57.8902 85.2021C55.9731 82.2309 54.993 78.6934 55.0904 75.0963C55.0921 75.0133 55.0667 74.9322 55.0184 74.8668C54.9701 74.8014 54.9019 74.7557 54.8255 74.7375V74.1087H51.5194V74.7288H51.4738C51.4293 74.7289 51.3852 74.7382 51.344 74.7563C51.3029 74.7744 51.2655 74.801 51.2341 74.8344C51.2026 74.8678 51.1777 74.9074 51.1607 74.951C51.1437 74.9946 51.135 75.0414 51.135 75.0885C51.135 75.0973 51.1353 75.106 51.1359 75.1147C51.3964 78.96 50.5169 82.4084 48.4974 85.4599C48.3812 85.6353 48.3218 85.8459 48.3282 86.06L48.6897 97.9033C48.6984 98.1675 48.8031 98.4179 48.9819 98.6023C49.1608 98.7867 49.3999 98.8908 49.6495 98.8929H57.1274C57.3798 98.8907 57.6214 98.7842 57.8008 98.5961C57.9802 98.408 58.0831 98.1532 58.0877 97.8859L58.227 86.387C58.2311 85.9649 58.1137 85.5516 57.8902 85.2021Z" fill="#E6E6E6"/>
<path d="M56.7065 89.136H50.1976C50.1012 89.136 50.006 89.1581 49.9185 89.2007C49.8309 89.2433 49.7531 89.3055 49.6904 89.383C49.6276 89.4604 49.5815 89.5513 49.555 89.6494C49.5285 89.7476 49.5224 89.8506 49.5371 89.9514L50.5207 96.7227H56.1686L57.3633 89.9742C57.3814 89.872 57.378 89.7668 57.3534 89.6662C57.3287 89.5655 57.2834 89.4718 57.2207 89.3918C57.158 89.3118 57.0794 89.2474 56.9905 89.2032C56.9017 89.159 56.8047 89.1361 56.7065 89.136Z" fill="#F4AAA9"/>
<path d="M56.4638 28.5087H37.8037C39.1083 21.0384 38.8082 12.0178 37.8037 2.31677H56.4638C55.4861 12.0179 55.1939 21.0385 56.4638 28.5087Z" fill="#E6E6E6"/>
<path d="M47.2462 19.4606C49.7295 19.4606 51.7426 17.3285 51.7426 14.6984C51.7426 12.0683 49.7295 9.93625 47.2462 9.93625C44.7629 9.93625 42.7498 12.0683 42.7498 14.6984C42.7498 17.3285 44.7629 19.4606 47.2462 19.4606Z" fill="#F4AAA9"/>
<path d="M39.3775 63.2726H20.7174C22.022 55.8023 21.7219 46.7817 20.7174 37.0806H39.3775C38.3998 46.7817 38.1076 55.8023 39.3775 63.2726Z" fill="#E6E6E6"/>
<path d="M30.1599 54.2244C32.6432 54.2244 34.6563 52.0923 34.6563 49.4623C34.6563 46.8322 32.6432 44.7001 30.1599 44.7001C27.6766 44.7001 25.6635 46.8322 25.6635 49.4623C25.6635 52.0923 27.6766 54.2244 30.1599 54.2244Z" fill="#F4AAA9"/>
<path d="M67.0303 30.1755H48.3702C49.6748 22.7052 49.3747 13.6846 48.3702 3.98352H67.0303C66.0526 13.6846 65.7604 22.7052 67.0303 30.1755Z" fill="#E6E6E6"/>
<path d="M57.8128 21.1273C60.2961 21.1273 62.3092 18.9952 62.3092 16.3652C62.3092 13.7351 60.2961 11.603 57.8128 11.603C55.3295 11.603 53.3164 13.7351 53.3164 16.3652C53.3164 18.9952 55.3295 21.1273 57.8128 21.1273Z" fill="#F4AAA9"/>
<path d="M67.0303 28.9849H48.3702C49.6748 21.5146 49.3747 12.494 48.3702 2.79297H67.0303C66.0526 12.4941 65.7604 21.5147 67.0303 28.9849Z" fill="#E6E6E6"/>
<path d="M57.8128 19.9368C60.2961 19.9368 62.3092 17.8047 62.3092 15.1746C62.3092 12.5446 60.2961 10.4125 57.8128 10.4125C55.3295 10.4125 53.3164 12.5446 53.3164 15.1746C53.3164 17.8047 55.3295 19.9368 57.8128 19.9368Z" fill="#F4AAA9"/>
<path d="M67.0303 30.1755H48.3702C49.6748 22.7052 49.3747 13.6846 48.3702 3.98352H67.0303C66.0526 13.6846 65.7604 22.7052 67.0303 30.1755Z" fill="#E6E6E6"/>
<path d="M57.8128 21.1273C60.2961 21.1273 62.3092 18.9952 62.3092 16.3652C62.3092 13.7351 60.2961 11.603 57.8128 11.603C55.3295 11.603 53.3164 13.7351 53.3164 16.3652C53.3164 18.9952 55.3295 21.1273 57.8128 21.1273Z" fill="#F4AAA9"/>
<path d="M71.3019 27.08H10.1508V34.2233H71.3019V27.08Z" fill="#E6E6E6"/>
<path d="M71.3019 62.5582H10.1508V69.7015H71.3019V62.5582Z" fill="#E6E6E6"/>
<path d="M71.3019 98.0364H10.1508V105.18H71.3019V98.0364Z" fill="#E6E6E6"/>
<path d="M104.187 74.9399H102.515C102.456 74.9399 102.399 74.9646 102.358 75.0086C102.316 75.0527 102.293 75.1124 102.293 75.1747V75.9521C102.293 75.9829 102.299 76.0135 102.31 76.042C102.321 76.0705 102.337 76.0963 102.358 76.1181C102.378 76.14 102.403 76.1573 102.43 76.1691C102.457 76.1809 102.485 76.1869 102.515 76.1869H102.792V77.3517H103.91V76.1869H104.187C104.246 76.1869 104.302 76.1622 104.344 76.1181C104.385 76.0741 104.409 76.0144 104.409 75.9521V75.1747C104.409 75.1124 104.385 75.0527 104.344 75.0087C104.302 74.9646 104.246 74.9399 104.187 74.9399Z" fill="#E6E6E6"/>
<path d="M105.862 82.0547C104.838 80.4675 104.314 78.5777 104.366 76.656C104.367 76.6117 104.353 76.5684 104.328 76.5334C104.302 76.4985 104.265 76.4741 104.225 76.4644V76.1285H102.458V76.4597H102.434C102.41 76.4597 102.387 76.4648 102.365 76.4744C102.343 76.4841 102.323 76.4983 102.306 76.5161C102.289 76.534 102.276 76.5551 102.267 76.5784C102.258 76.6017 102.253 76.6267 102.253 76.6519C102.253 76.6566 102.253 76.6612 102.254 76.6659C102.417 78.6267 101.917 80.5852 100.844 82.1925C100.782 82.2861 100.75 82.3986 100.754 82.513L100.947 88.8399C100.951 88.981 101.007 89.1148 101.103 89.2133C101.198 89.3118 101.326 89.3674 101.459 89.3685H105.454C105.589 89.3673 105.718 89.3105 105.814 89.21C105.91 89.1095 105.965 88.9734 105.967 88.8306L106.042 82.6877C106.044 82.4622 105.981 82.2414 105.862 82.0547Z" fill="#F30E08"/>
<path opacity="0.2" d="M103.838 75.1932C103.838 75.3276 103.788 75.4564 103.698 75.5514C103.608 75.6464 103.487 75.6998 103.36 75.6998C103.233 75.6998 103.111 75.6464 103.022 75.5514C102.932 75.4564 102.882 75.3276 102.882 75.1932" fill="black"/>
<path d="M105.084 83.2737H101.712V85.6548H105.084V83.2737Z" fill="#F4AAA9"/>
<path d="M157.107 99.6564H153.977C153.867 99.6564 153.761 99.7027 153.683 99.7852C153.606 99.8676 153.562 99.9794 153.562 100.096V101.551C153.562 101.668 153.606 101.78 153.683 101.862C153.761 101.944 153.867 101.991 153.977 101.991H154.496V104.171H156.589V101.991H157.107C157.217 101.991 157.323 101.944 157.401 101.862C157.479 101.78 157.522 101.668 157.522 101.551V100.096C157.522 99.9794 157.479 99.8676 157.401 99.7852C157.323 99.7027 157.217 99.6564 157.107 99.6564Z" fill="#E6E6E6"/>
<path d="M160.243 112.975C158.326 110.004 157.345 106.466 157.443 102.869C157.445 102.786 157.419 102.705 157.371 102.639C157.323 102.574 157.254 102.528 157.178 102.51V101.881H153.872V102.501H153.826C153.782 102.501 153.738 102.511 153.696 102.529C153.655 102.547 153.618 102.574 153.586 102.607C153.555 102.64 153.53 102.68 153.513 102.724C153.496 102.767 153.487 102.814 153.487 102.861C153.487 102.87 153.488 102.879 153.488 102.887C153.749 106.733 152.869 110.181 150.85 113.233C150.734 113.408 150.674 113.618 150.681 113.833L151.042 125.676C151.051 125.94 151.156 126.19 151.334 126.375C151.513 126.559 151.752 126.663 152.002 126.665H159.48C159.732 126.663 159.974 126.557 160.153 126.369C160.333 126.181 160.436 125.926 160.44 125.658L160.579 114.16C160.584 113.738 160.466 113.324 160.243 112.975Z" fill="#F30E08"/>
<path opacity="0.2" d="M156.455 100.131C156.455 100.382 156.36 100.623 156.192 100.801C156.025 100.979 155.797 101.079 155.559 101.079C155.322 101.079 155.094 100.979 154.926 100.801C154.758 100.623 154.664 100.382 154.664 100.131" fill="black"/>
<path d="M159.059 116.909H152.55C152.454 116.909 152.358 116.931 152.271 116.973C152.183 117.016 152.106 117.078 152.043 117.156C151.98 117.233 151.934 117.324 151.907 117.422C151.881 117.52 151.875 117.623 151.889 117.724L152.873 124.495H158.521L159.716 117.747C159.734 117.645 159.73 117.539 159.706 117.439C159.681 117.338 159.636 117.244 159.573 117.164C159.51 117.084 159.432 117.02 159.343 116.976C159.254 116.932 159.157 116.909 159.059 116.909Z" fill="#F4AAA9"/>
<path d="M148.176 126.998H129.516C130.82 119.527 130.52 110.507 129.516 100.806H148.176C147.198 110.507 146.906 119.527 148.176 126.998Z" fill="#F30E08"/>
<path d="M138.958 117.95C141.441 117.95 143.455 115.817 143.455 113.187C143.455 110.557 141.441 108.425 138.958 108.425C136.475 108.425 134.462 110.557 134.462 113.187C134.462 115.817 136.475 117.95 138.958 117.95Z" fill="#F4AAA9"/>
<path d="M71.8514 44.5679L76.0404 44.1645L78.7063 37.3081L73.946 34.4847L71.8514 44.5679Z" fill="#FFB8B8"/>
<path d="M110.296 63.3911C110.435 63.0232 110.49 62.6255 110.456 62.2307C110.421 61.836 110.299 61.4556 110.099 61.1208C109.898 60.786 109.626 60.5065 109.303 60.3051C108.981 60.1038 108.618 59.9865 108.244 59.963L101.74 59.5522L100.782 62.9249L107.478 64.8724C108.038 65.0352 108.634 64.9741 109.154 64.7009C109.673 64.4277 110.08 63.9615 110.296 63.3911Z" fill="#FFB8B8"/>
<path d="M103.312 64.9291L103.24 58.6003L88.7934 56.1589L77.6637 42.6398C77.0846 41.9364 76.2844 41.4791 75.4114 41.3527C74.5384 41.2262 73.6517 41.4392 72.9156 41.9521C72.4699 42.2627 72.0941 42.6731 71.8146 43.1544C71.5352 43.6357 71.359 44.1762 71.2984 44.7376C71.2379 45.2989 71.2945 45.8676 71.4643 46.4032C71.6341 46.9389 71.9129 47.4285 72.281 47.8375L81.4629 59.8051L103.312 64.9291Z" fill="#575A89"/>
<path d="M68.6145 136.124H72.4227L81.8686 90.8932L91.6543 104.866L97.3666 135.116H100.984L100.223 102.648L87.4652 67.9612H74.8981C71.4638 74.5438 68.7697 81.3293 71.8515 88.3294L68.6145 136.124Z" fill="#2F2E41"/>
<path d="M78.8015 39.8288C81.746 39.8288 84.133 37.3007 84.133 34.1822C84.133 31.0636 81.746 28.5356 78.8015 28.5356C75.857 28.5356 73.47 31.0636 73.47 34.1822C73.47 37.3007 75.857 39.8288 78.8015 39.8288Z" fill="#FFB8B8"/>
<path d="M74.0412 69.4736L87.9412 69.0703L83.8591 55.4633C86.396 51.1561 83.8428 46.8532 80.2296 42.5513L77.3734 40.5347L72.8035 40.1313C70.825 42.3736 69.7423 45.3398 69.7824 48.4085C69.8729 54.9798 70.9715 62.1334 74.0412 69.4736Z" fill="#575A89"/>
<path d="M105.977 78.6327C106.242 78.3525 106.44 78.0097 106.555 77.6325C106.67 77.2553 106.699 76.8545 106.639 76.4633C106.579 76.072 106.432 75.7014 106.211 75.382C105.989 75.0626 105.699 74.8035 105.364 74.6262L99.537 71.5386L97.4038 74.2404L102.836 78.8206C103.29 79.2033 103.861 79.3957 104.44 79.3611C105.02 79.3264 105.567 79.0672 105.977 78.6327Z" fill="#FFB8B8"/>
<path d="M98.985 77.137L101.27 71.2887L88.8946 63.0248L83.6837 45.9586C83.4125 45.0707 82.8467 44.3169 82.0911 43.8369C81.3354 43.3569 80.4411 43.1833 79.5738 43.3482C79.0487 43.448 78.5507 43.6687 78.1151 43.9948C77.6794 44.3209 77.3166 44.7444 77.0524 45.2353C76.7883 45.7261 76.6291 46.2725 76.5862 46.8357C76.5434 47.3989 76.6178 47.9652 76.8043 48.4946L80.8008 63.3229L98.985 77.137Z" fill="#575A89"/>
<path d="M70.0426 31.9638C70.0426 34.161 71.3899 37.5636 73.0892 39.0221C74.2325 40.0035 75.7436 39.9622 76.3262 38.6188C76.9238 37.2407 78.9839 34.0015 82.6097 31.9638C87.4433 29.2475 80.8956 24.6003 76.3262 25.3089C72.8925 25.8414 70.0426 28.2884 70.0426 31.9638Z" fill="#2F2E41"/>
<path d="M73.2795 28.9389C75.3828 28.9389 77.0878 27.1331 77.0878 24.9056C77.0878 22.678 75.3828 20.8723 73.2795 20.8723C71.1763 20.8723 69.4713 22.678 69.4713 24.9056C69.4713 27.1331 71.1763 28.9389 73.2795 28.9389Z" fill="#2F2E41"/>
<path d="M77.659 23.4939C77.6586 22.4771 77.2954 21.498 76.6421 20.7528C75.9888 20.0077 75.0938 19.5515 74.1364 19.4759C74.231 19.4684 74.3256 19.4606 74.422 19.4606C75.432 19.4606 76.4006 19.8855 77.1148 20.6419C77.829 21.3983 78.2302 22.4242 78.2302 23.4939C78.2302 24.5636 77.829 25.5895 77.1148 26.3459C76.4006 27.1023 75.432 27.5272 74.422 27.5272C74.3256 27.5272 74.231 27.5194 74.1364 27.512C75.0938 27.4363 75.9888 26.9801 76.6421 26.235C77.2954 25.4899 77.6586 24.5107 77.659 23.4939Z" fill="#2F2E41"/>
<path d="M78.8966 36.1988C79.3699 36.1988 79.7535 35.6571 79.7535 34.9888C79.7535 34.3206 79.3699 33.7788 78.8966 33.7788C78.4234 33.7788 78.0398 34.3206 78.0398 34.9888C78.0398 35.6571 78.4234 36.1988 78.8966 36.1988Z" fill="#FFB8B8"/>
<path d="M186.796 128.727H127.514L114.96 65.8754H104.246V63.0553H117.118L129.672 125.907H186.796V128.727Z" fill="#3F3D56"/>
<path d="M185.715 127.399H128.037L117.86 74.1348H195.265C195.66 74.1349 196.05 74.2255 196.409 74.4006C196.768 74.5756 197.087 74.8308 197.343 75.1487C197.6 75.4667 197.789 75.8397 197.896 76.2422C198.004 76.6447 198.028 77.0671 197.967 77.4804L188.416 124.953C188.318 125.636 187.991 126.259 187.495 126.708C186.999 127.157 186.367 127.402 185.715 127.399ZM128.663 126.594H185.715C186.186 126.596 186.642 126.418 186.999 126.094C187.357 125.77 187.593 125.321 187.664 124.828L197.215 77.3553C197.259 77.057 197.242 76.7521 197.164 76.4616C197.087 76.171 196.951 75.9018 196.765 75.6723C196.58 75.4428 196.35 75.2586 196.091 75.1323C195.832 75.006 195.55 74.9406 195.265 74.9406H118.783L128.663 126.594Z" fill="#3F3D56"/>
<path d="M139.25 127.229L132.585 74.6034L133.335 74.472L140 127.098L139.25 127.229Z" fill="#3F3D56"/>
<path d="M158.651 74.5377H157.891V127.163H158.651V74.5377Z" fill="#3F3D56"/>
<path d="M121.746 88.6391L121.745 89.4449L195.391 89.6337L195.393 88.828L121.746 88.6391Z" fill="#3F3D56"/>
<path d="M190.196 113.531L125.496 113.999L125.501 114.805L190.201 114.337L190.196 113.531Z" fill="#3F3D56"/>
<path d="M105.388 66.4798C107.699 66.4798 109.572 65.3975 109.572 64.0624C109.572 62.7273 107.699 61.645 105.388 61.645C103.077 61.645 101.203 62.7273 101.203 64.0624C101.203 65.3975 103.077 66.4798 105.388 66.4798Z" fill="#3F3D56"/>
</g>
<defs>
<clipPath id="clip0_7_118">
<rect width="162" height="124" fill="white"/>
</clipPath>
</defs>
</svg>
