<svg width="201" height="220" viewBox="0 0 201 220" fill="none" xmlns="http://www.w3.org/2000/svg">
<g clip-path="url(#clip0_289_775)">
<path d="M139.378 44.5493C125.514 42.3367 109.726 41.1561 93.2839 41.1561C78.2362 41.1561 63.7387 42.1434 50.7639 44.005C50.767 43.8058 50.7699 43.6066 50.7787 43.4073C51.1227 31.8419 55.9769 20.8699 64.3038 12.8362C72.6306 4.80257 83.7696 0.344693 95.3399 0.415379C106.91 0.486064 117.994 5.07971 126.222 13.2145C134.45 21.3493 139.17 32.3798 139.372 43.9485C139.375 44.1508 139.378 44.35 139.378 44.5493Z" fill="#F4AAA9"/>
<g opacity="0.1">
<path d="M100.882 0.398889C94.7283 -0.432316 88.4685 0.0387866 82.5084 1.78166C76.5484 3.52454 71.021 6.5003 66.2846 10.5161C61.5482 14.5319 57.7084 19.498 55.0142 25.0928C52.3199 30.6875 50.8312 36.7859 50.6447 42.9928C50.6357 43.192 50.6328 43.3913 50.6299 43.5905C54.4845 43.0374 58.4763 42.5635 62.5743 42.1678C63.0755 31.8274 67.181 21.9888 74.1784 14.3592C81.1758 6.72955 90.6235 1.79044 100.882 0.398889Z" fill="white"/>
</g>
<path d="M158.762 48.0645C152.38 46.3344 145.907 44.9604 139.372 43.9487C128.662 42.2891 117.865 41.2514 107.035 40.8411C102.523 40.6567 97.9289 40.5615 93.2838 40.5615C89.6022 40.5615 85.9502 40.621 82.3489 40.74C71.7847 41.0521 61.2455 41.9426 50.7786 43.4075C43.0306 44.4744 35.3576 46.0298 27.8057 48.0645C10.1976 52.9327 0.5 59.4573 0.5 66.4339C0.5 73.4105 10.1976 79.9351 27.8057 84.8033C40.1888 88.2292 55.4565 90.5636 72.0923 91.6342C78.9588 92.0803 86.0574 92.3063 93.2838 92.3063C100.534 92.3063 107.656 92.0773 114.544 91.6312C129.684 90.6529 143.69 88.6277 155.413 85.6836C155.476 85.6657 155.535 85.6509 155.598 85.636C156.389 85.4397 157.168 85.2345 157.938 85.0293C158.215 84.952 158.488 84.8777 158.762 84.8033C158.777 84.797 158.793 84.792 158.809 84.7884C159.071 84.7171 159.33 84.6427 159.588 84.5714C160.106 84.4227 160.617 84.277 161.12 84.1253C161.144 84.1193 161.165 84.1134 161.185 84.1074C161.623 83.9766 162.051 83.8457 162.476 83.7149C162.824 83.6049 163.169 83.4978 163.511 83.3878C163.761 83.3075 164.008 83.2272 164.251 83.1469C164.43 83.0874 164.605 83.0309 164.778 82.9714C165.013 82.8941 165.248 82.8138 165.48 82.7335C165.578 82.7008 165.676 82.6681 165.771 82.6324C165.994 82.5581 166.211 82.4808 166.428 82.4034C166.663 82.3202 166.898 82.2339 167.13 82.1507C167.323 82.0823 167.517 82.0109 167.707 81.9395C167.868 81.8771 168.025 81.8176 168.186 81.7581C168.623 81.5945 169.051 81.425 169.474 81.2585C169.685 81.1723 169.896 81.089 170.104 81.0028C170.309 80.9195 170.517 80.8332 170.72 80.747C171.053 80.6072 171.38 80.4674 171.701 80.3277C171.856 80.2563 172.013 80.1879 172.165 80.1225C172.281 80.069 172.394 80.0184 172.51 79.9649C172.593 79.9292 172.676 79.8905 172.757 79.8519C173.057 79.7151 173.354 79.5753 173.646 79.4356C174.764 78.9003 175.808 78.3531 176.777 77.794C182.859 74.3116 186.068 70.4486 186.068 66.4339C186.068 59.4573 176.37 52.9327 158.762 48.0645ZM158.601 84.2323C146.203 87.6612 130.894 89.9956 114.214 91.0573C107.43 91.4885 100.418 91.7115 93.2838 91.7115C86.1733 91.7115 79.1847 91.4915 72.4223 91.0603C55.7152 90.0016 40.3821 87.6671 27.9663 84.2323C10.6378 79.4385 1.09477 73.1191 1.09477 66.4339C1.09574 65.8432 1.16967 65.2549 1.3149 64.6823C2.83144 58.6514 12.1604 53.007 27.9663 48.6355C35.4611 46.6167 43.0753 45.0702 50.7638 44.0052C61.2937 42.532 71.8965 41.6385 82.5244 41.3288C86.0693 41.2128 89.6558 41.1553 93.2838 41.1563C97.8665 41.1563 102.399 41.2485 106.853 41.4269C117.747 41.8336 128.607 42.8762 139.378 44.5494C145.856 45.5566 152.274 46.9207 158.601 48.6355C174.404 53.007 183.73 58.6484 185.25 64.6764C185.397 65.2506 185.472 65.841 185.473 66.4339C185.473 73.1191 175.93 79.4385 158.601 84.2323Z" fill="#3F3D56"/>
<path d="M185.898 66.7046C185.898 70.6776 182.624 74.4366 176.777 77.794C175.805 78.3531 174.758 78.9003 173.646 79.4356C173.354 79.5754 173.057 79.7151 172.757 79.8519C172.676 79.8906 172.593 79.9292 172.51 79.9649C172.394 80.0185 172.281 80.069 172.165 80.1225C172.013 80.188 171.856 80.2564 171.701 80.3277C171.38 80.4675 171.053 80.6073 170.72 80.747C170.517 80.8333 170.309 80.9195 170.104 81.0028C169.896 81.089 169.685 81.1723 169.474 81.2585C169.051 81.4251 168.623 81.5946 168.186 81.7581C168.025 81.8176 167.868 81.8771 167.707 81.9395C167.517 82.0109 167.323 82.0823 167.13 82.1507C166.898 82.2339 166.663 82.3202 166.428 82.4035C166.211 82.4808 165.994 82.5581 165.771 82.6324C165.676 82.6681 165.578 82.7008 165.48 82.7335C165.248 82.8138 165.013 82.8941 164.778 82.9715C164.605 83.0309 164.43 83.0874 164.251 83.1469C164.008 83.2272 163.761 83.3075 163.511 83.3878C163.169 83.4978 162.824 83.6049 162.476 83.7149C162.051 83.8458 161.622 83.9766 161.185 84.1075C161.164 84.1134 161.144 84.1194 161.12 84.1253C160.617 84.277 160.106 84.4227 159.588 84.5714C159.33 84.6428 159.071 84.7171 158.809 84.7885C158.793 84.7921 158.777 84.797 158.762 84.8033C158.488 84.8777 158.214 84.952 157.938 85.0294C157.171 85.2316 156.389 85.4368 155.598 85.636C155.535 85.6509 155.476 85.6658 155.413 85.6836C144.008 88.5325 130.017 90.6083 114.532 91.6105C107.749 92.0476 100.677 92.2796 93.4117 92.2796C86.0812 92.2796 78.9498 92.0446 72.113 91.5986C31.3 88.937 0.925293 78.8021 0.925293 66.7046C0.928506 65.9685 1.04071 65.2369 1.25825 64.5337C1.27611 64.5842 1.29397 64.6318 1.31488 64.6824C5.55841 75.8283 35.6746 84.8361 74.7508 87.0337C80.7371 87.3727 86.9376 87.5482 93.2837 87.5482C99.6567 87.5482 105.881 87.3698 111.891 87.0307C150.935 84.8242 181.021 75.8134 185.25 64.6764C185.321 64.498 185.384 64.3195 185.437 64.1411C185.739 64.9623 185.895 65.8298 185.898 66.7046Z" fill="#3F3D56"/>
<path d="M27.7609 63.5034C22.8116 63.5034 17.5515 62.4386 17.5515 60.4651C17.5515 58.4916 22.8116 57.4268 27.7609 57.4268C32.7102 57.4268 37.9703 58.4916 37.9703 60.4651C37.9703 62.4386 32.7102 63.5034 27.7609 63.5034ZM27.7609 58.0215C22.0949 58.0215 18.1463 59.3094 18.1463 60.4651C18.1463 61.6208 22.0949 62.9086 27.7609 62.9086C33.427 62.9086 37.3755 61.6208 37.3755 60.4651C37.3755 59.3094 33.427 58.0215 27.7609 58.0215Z" fill="#3F3D56"/>
<path d="M48.8751 77.4804C43.9259 77.4804 38.6658 76.4156 38.6658 74.4421C38.6658 72.4686 43.9259 71.4038 48.8751 71.4038C53.8244 71.4038 59.0846 72.4686 59.0846 74.4421C59.0846 76.4156 53.8244 77.4804 48.8751 77.4804ZM48.8751 71.9986C43.2091 71.9986 39.2605 73.2864 39.2605 74.4421C39.2605 75.5978 43.2091 76.8857 48.8751 76.8857C54.5411 76.8857 58.4898 75.5978 58.4898 74.4421C58.4898 73.2864 54.5412 71.9986 48.8751 71.9986Z" fill="#3F3D56"/>
<path d="M158.61 63.5034C153.661 63.5034 148.4 62.4386 148.4 60.4651C148.4 58.4916 153.661 57.4268 158.61 57.4268C163.559 57.4268 168.819 58.4916 168.819 60.4651C168.819 62.4386 163.559 63.5034 158.61 63.5034ZM158.61 58.0215C152.944 58.0215 148.995 59.3094 148.995 60.4651C148.995 61.6208 152.944 62.9086 158.61 62.9086C164.276 62.9086 168.224 61.6208 168.224 60.4651C168.224 59.3094 164.276 58.0215 158.61 58.0215Z" fill="#3F3D56"/>
<path d="M137.495 77.4804C132.546 77.4804 127.286 76.4156 127.286 74.4421C127.286 72.4686 132.546 71.4038 137.495 71.4038C142.445 71.4038 147.705 72.4686 147.705 74.4421C147.705 76.4156 142.445 77.4804 137.495 77.4804ZM137.495 71.9986C131.829 71.9986 127.881 73.2864 127.881 74.4421C127.881 75.5978 131.829 76.8857 137.495 76.8857C143.162 76.8857 147.11 75.5978 147.11 74.4421C147.11 73.2864 143.162 71.9986 137.495 71.9986Z" fill="#3F3D56"/>
<path d="M93.1854 84.0229C88.2362 84.0229 82.9761 82.9581 82.9761 80.9846C82.9761 79.0111 88.2362 77.9463 93.1854 77.9463C98.1347 77.9463 103.395 79.0111 103.395 80.9846C103.395 82.9581 98.1347 84.0229 93.1854 84.0229ZM93.1854 78.5411C87.5194 78.5411 83.5708 79.8289 83.5708 80.9846C83.5708 82.1403 87.5194 83.4281 93.1854 83.4281C98.8515 83.4281 102.8 82.1403 102.8 80.9846C102.8 79.8289 98.8515 78.5411 93.1854 78.5411Z" fill="#3F3D56"/>
<path d="M100.712 146.526C107.612 146.526 113.206 140.932 113.206 134.032C113.206 127.132 107.612 121.539 100.712 121.539C93.8117 121.539 88.218 127.132 88.218 134.032C88.218 140.932 93.8117 146.526 100.712 146.526Z" fill="#2F2E41"/>
<path d="M95.9607 142.241L89.8801 145.286L91.5797 148.679L97.6603 145.634L95.9607 142.241Z" fill="#2F2E41"/>
<path d="M92.3815 148.335C92.7421 147.788 91.8521 146.565 90.3938 145.604C88.9354 144.642 87.4608 144.306 87.1002 144.853C86.7396 145.4 87.6295 146.623 89.0879 147.584C90.5463 148.546 92.0209 148.882 92.3815 148.335Z" fill="#2F2E41"/>
<path d="M105.463 142.24L103.763 145.634L109.844 148.679L111.543 145.286L105.463 142.24Z" fill="#2F2E41"/>
<path d="M112.336 147.584C113.794 146.623 114.684 145.4 114.323 144.853C113.963 144.306 112.488 144.642 111.03 145.604C109.571 146.565 108.681 147.788 109.042 148.335C109.403 148.882 110.877 148.546 112.336 147.584Z" fill="#2F2E41"/>
<path d="M99.8372 135.246C102.195 135.246 104.107 133.334 104.107 130.976C104.107 128.618 102.195 126.706 99.8372 126.706C97.4789 126.706 95.5671 128.618 95.5671 130.976C95.5671 133.334 97.4789 135.246 99.8372 135.246Z" fill="white"/>
<path d="M100.876 130.158C101.429 129.604 101.426 128.703 100.869 128.146C100.311 127.589 99.4105 127.585 98.857 128.139C98.3035 128.692 98.3066 129.593 98.8641 130.15C99.4215 130.708 100.322 130.711 100.876 130.158Z" fill="#3F3D56"/>
<path d="M110.568 120.44C110.755 115.815 106.769 111.897 101.664 111.69C96.5583 111.482 92.2673 115.064 92.0794 119.689C91.8915 124.315 95.4404 125.366 100.546 125.573C105.651 125.78 110.38 125.066 110.568 120.44Z" fill="#F4AAA9"/>
<path d="M117.769 140.574C118.591 139.869 117.436 137.175 115.188 134.557C112.941 131.939 110.453 130.389 109.631 131.095C108.81 131.8 109.965 134.494 112.212 137.112C114.46 139.73 116.948 141.28 117.769 140.574Z" fill="#2F2E41"/>
<path d="M89.2462 137.112C91.4935 134.494 92.6491 131.8 91.8273 131.095C91.0055 130.389 88.5175 131.939 86.2702 134.557C84.0229 137.175 82.8674 139.869 83.6892 140.574C84.511 141.28 86.9989 139.73 89.2462 137.112Z" fill="#2F2E41"/>
<path d="M104.143 138.956C104.278 139.699 104.113 140.465 103.683 141.086C103.254 141.706 102.595 142.131 101.852 142.266C101.11 142.402 100.344 142.236 99.7227 141.807C99.1018 141.377 98.6771 140.718 98.5419 139.976L98.5409 139.97C98.2608 138.423 99.4569 137.876 101.004 137.596C102.551 137.316 103.863 137.409 104.143 138.956Z" fill="white"/>
<path d="M79.604 147.322C79.4463 147.322 79.295 147.26 79.1835 147.148C79.072 147.037 79.0093 146.885 79.0093 146.728V111.636C79.0093 111.479 79.0719 111.327 79.1835 111.216C79.295 111.104 79.4463 111.042 79.604 111.042C79.7618 111.042 79.9131 111.104 80.0246 111.216C80.1361 111.327 80.1988 111.479 80.1988 111.636V146.728C80.1988 146.885 80.1361 147.037 80.0246 147.148C79.9131 147.26 79.7618 147.322 79.604 147.322Z" fill="#CCCCCC"/>
<path d="M70.6827 178.845C70.5249 178.845 70.3736 178.782 70.2621 178.67C70.1506 178.559 70.0879 178.408 70.0879 178.25V152.675C70.0879 152.517 70.1506 152.366 70.2621 152.254C70.3736 152.143 70.5249 152.08 70.6827 152.08C70.8404 152.08 70.9917 152.143 71.1032 152.254C71.2148 152.366 71.2774 152.517 71.2774 152.675V178.25C71.2774 178.408 71.2148 178.559 71.1032 178.67C70.9917 178.782 70.8404 178.845 70.6827 178.845Z" fill="#CCCCCC"/>
<path d="M93.5811 157.731C93.4234 157.731 93.2721 157.668 93.1605 157.556C93.049 157.445 92.9863 157.294 92.9863 157.136V122.044C92.9863 121.887 93.049 121.735 93.1605 121.624C93.2721 121.512 93.4234 121.45 93.5811 121.45C93.7388 121.45 93.8901 121.512 94.0017 121.624C94.1132 121.735 94.1759 121.887 94.1759 122.044V157.136C94.1759 157.294 94.1132 157.445 94.0017 157.556C93.8901 157.668 93.7388 157.731 93.5811 157.731Z" fill="#CCCCCC"/>
<path d="M84.9571 183.008C84.7993 183.008 84.6481 182.946 84.5365 182.834C84.425 182.723 84.3623 182.571 84.3623 182.414V168.139C84.3623 167.981 84.425 167.83 84.5365 167.719C84.648 167.607 84.7993 167.544 84.9571 167.544C85.1148 167.544 85.2661 167.607 85.3776 167.719C85.4892 167.83 85.5518 167.981 85.5518 168.139V182.414C85.5518 182.571 85.4892 182.723 85.3776 182.834C85.2661 182.946 85.1148 183.008 84.9571 183.008Z" fill="#CCCCCC"/>
<path d="M97.1497 109.852C96.992 109.852 96.8407 109.789 96.7291 109.677C96.6176 109.566 96.5549 109.415 96.5549 109.257V94.9825C96.5549 94.8247 96.6176 94.6734 96.7291 94.5619C96.8407 94.4504 96.992 94.3877 97.1497 94.3877C97.3074 94.3877 97.4587 94.4504 97.5703 94.5619C97.6818 94.6734 97.7445 94.8247 97.7445 94.9825V109.257C97.7445 109.415 97.6818 109.566 97.5703 109.677C97.4587 109.789 97.3074 109.852 97.1497 109.852Z" fill="#CCCCCC"/>
<path d="M67.4114 116.097C67.2537 116.097 67.1024 116.034 66.9909 115.923C66.8793 115.811 66.8167 115.66 66.8167 115.502V101.228C66.8167 101.07 66.8793 100.919 66.9909 100.807C67.1024 100.695 67.2537 100.633 67.4114 100.633C67.5692 100.633 67.7204 100.695 67.832 100.807C67.9435 100.919 68.0062 101.07 68.0062 101.228V115.502C68.0062 115.66 67.9435 115.811 67.832 115.923C67.7204 116.034 67.5692 116.097 67.4114 116.097Z" fill="#CCCCCC"/>
<path d="M119.156 117.584C118.998 117.584 118.847 117.521 118.735 117.409C118.624 117.298 118.561 117.147 118.561 116.989V102.714C118.561 102.557 118.624 102.405 118.735 102.294C118.847 102.182 118.998 102.12 119.156 102.12C119.314 102.12 119.465 102.182 119.577 102.294C119.688 102.405 119.751 102.557 119.751 102.714V116.989C119.751 117.147 119.688 117.298 119.577 117.409C119.465 117.521 119.314 117.584 119.156 117.584Z" fill="#CCCCCC"/>
<path d="M117.967 162.191C117.809 162.191 117.658 162.129 117.546 162.017C117.434 161.905 117.372 161.754 117.372 161.596V144.348C117.372 144.19 117.434 144.039 117.546 143.928C117.658 143.816 117.809 143.753 117.967 143.753C118.124 143.753 118.276 143.816 118.387 143.928C118.499 144.039 118.561 144.19 118.561 144.348V161.596C118.561 161.754 118.499 161.905 118.387 162.017C118.276 162.129 118.124 162.191 117.967 162.191Z" fill="#CCCCCC"/>
<path d="M106.071 177.358C105.914 177.358 105.762 177.295 105.651 177.184C105.539 177.072 105.477 176.921 105.477 176.763V151.188C105.477 151.03 105.539 150.879 105.651 150.767C105.762 150.656 105.914 150.593 106.071 150.593C106.229 150.593 106.38 150.656 106.492 150.767C106.603 150.879 106.666 151.03 106.666 151.188V176.763C106.666 176.921 106.603 177.072 106.492 177.184C106.38 177.295 106.229 177.358 106.071 177.358Z" fill="#CCCCCC"/>
<path d="M108.45 133.643C108.292 133.643 108.141 133.58 108.03 133.468C107.918 133.357 107.855 133.206 107.855 133.048V97.9566C107.855 97.7988 107.918 97.6476 108.03 97.536C108.141 97.4245 108.292 97.3618 108.45 97.3618C108.608 97.3618 108.759 97.4245 108.871 97.536C108.982 97.6476 109.045 97.7988 109.045 97.9566V133.048C109.045 133.206 108.982 133.357 108.871 133.468C108.759 133.58 108.608 133.643 108.45 133.643Z" fill="#CCCCCC"/>
<path d="M181.367 208.315C182.218 207.602 181.068 204.826 178.797 202.114C176.527 199.402 173.996 197.782 173.145 198.495C172.294 199.207 173.444 201.983 175.715 204.695C177.985 207.407 180.516 209.027 181.367 208.315Z" fill="#2F2E41"/>
<path d="M175.784 205.231C178.021 198.521 174.394 191.268 167.684 189.031C160.973 186.794 153.72 190.421 151.483 197.131C149.246 203.841 152.873 211.095 159.583 213.331C166.294 215.568 173.547 211.942 175.784 205.231Z" fill="#2F2E41"/>
<path d="M169.054 211.232H165.164V218.204H169.054V211.232Z" fill="#2F2E41"/>
<path d="M161.273 211.232H157.382V218.204H161.273V211.232Z" fill="#2F2E41"/>
<path d="M165.812 219.501C167.603 219.501 169.054 218.956 169.054 218.285C169.054 217.613 167.603 217.069 165.812 217.069C164.021 217.069 162.57 217.613 162.57 218.285C162.57 218.956 164.021 219.501 165.812 219.501Z" fill="#2F2E41"/>
<path d="M158.03 219.339C159.821 219.339 161.273 218.794 161.273 218.123C161.273 217.451 159.821 216.907 158.03 216.907C156.24 216.907 154.788 217.451 154.788 218.123C154.788 218.794 156.24 219.339 158.03 219.339Z" fill="#2F2E41"/>
<path d="M159.612 185.082C160.756 180.476 165.804 177.766 170.887 179.028C175.971 180.29 179.165 185.047 178.021 189.653C176.878 194.258 173.083 194.273 168 193.011C162.916 191.749 158.468 189.687 159.612 185.082Z" fill="#CCCCCC"/>
<path d="M154.994 197.983C155.47 196.979 153.265 194.938 150.07 193.422C146.874 191.906 143.898 191.491 143.422 192.494C142.946 193.497 145.151 195.539 148.347 197.055C151.542 198.57 154.518 198.986 154.994 197.983Z" fill="#2F2E41"/>
<path d="M161.719 202.749C164.077 202.749 165.989 200.837 165.989 198.479C165.989 196.12 164.077 194.208 161.719 194.208C159.36 194.208 157.449 196.12 157.449 198.479C157.449 200.837 159.36 202.749 161.719 202.749Z" fill="white"/>
<path d="M159.964 198.371C160.75 198.371 161.387 197.734 161.387 196.948C161.387 196.162 160.75 195.524 159.964 195.524C159.178 195.524 158.541 196.162 158.541 196.948C158.541 197.734 159.178 198.371 159.964 198.371Z" fill="#3F3D56"/>
<path d="M161.682 209.178C162.667 209.178 163.466 208.379 163.466 207.394C163.466 206.408 162.667 205.609 161.682 205.609C160.697 205.609 159.898 206.408 159.898 207.394C159.898 208.379 160.697 209.178 161.682 209.178Z" fill="white"/>
<path d="M200.203 219.586H130.02C129.941 219.586 129.866 219.555 129.81 219.499C129.754 219.444 129.723 219.368 129.723 219.289C129.723 219.21 129.754 219.135 129.81 219.079C129.866 219.023 129.941 218.992 130.02 218.992H200.203C200.281 218.992 200.357 219.023 200.413 219.079C200.469 219.135 200.5 219.21 200.5 219.289C200.5 219.368 200.469 219.444 200.413 219.499C200.357 219.555 200.281 219.586 200.203 219.586Z" fill="#3F3D56"/>
</g>
<defs>
<clipPath id="clip0_289_775">
<rect width="200" height="219.586" fill="white" transform="translate(0.5)"/>
</clipPath>
</defs>
</svg>
