<svg width="342" height="299" viewBox="0 0 342 299" fill="none" xmlns="http://www.w3.org/2000/svg">
<g clip-path="url(#clip0_38_708)">
<path d="M57.6759 265.301C46.4404 271.358 41.6172 284.214 41.6172 284.214C41.6172 284.214 55.0104 287.249 66.246 281.191C77.4816 275.134 82.3048 262.278 82.3048 262.278C82.3048 262.278 68.9115 259.243 57.6759 265.301Z" fill="#F27F7E"/>
<path d="M61.3725 269.464C54.7919 280.4 41.721 284.612 41.721 284.612C41.721 284.612 39.3194 271.093 45.9 260.157C52.4806 249.221 65.5515 245.009 65.5515 245.009C65.5515 245.009 67.9531 258.528 61.3725 269.464Z" fill="#F30E08"/>
<path d="M269.322 21.0436H229.457V44.6437H269.322V21.0436Z" fill="#2F2E41"/>
<path d="M189.963 24.8489H169.409V17.683C169.409 14.9579 170.492 12.3444 172.419 10.4174C174.346 8.4905 176.96 7.40796 179.686 7.40796C182.412 7.40796 185.026 8.4905 186.953 10.4174C188.88 12.3444 189.963 14.9579 189.963 17.683V24.8489ZM169.864 24.3939H189.508V17.683C189.508 15.0785 188.473 12.5808 186.631 10.7391C184.789 8.89754 182.291 7.86294 179.686 7.86294C177.081 7.86294 174.583 8.89754 172.741 10.7391C170.899 12.5808 169.864 15.0785 169.864 17.683V24.3939Z" fill="#3F3D56"/>
<path d="M200.126 23.8634V21.0629L147.856 22.4631L146.201 93.3997L153.937 102.954L200.126 23.8634Z" fill="#3F3D56"/>
<path d="M209.379 22.8774L152.724 24.1665L153.937 102.954L208.612 97.0619L209.379 22.8774Z" fill="#F27F7E"/>
<path d="M257.548 278.143H251.117L248.058 253.343H257.549L257.548 278.143Z" fill="#FFB6B6"/>
<path d="M259.188 284.375L238.452 284.374V284.112C238.452 281.972 239.303 279.92 240.816 278.406C242.33 276.893 244.383 276.043 246.523 276.043H246.523L259.188 276.043L259.188 284.375Z" fill="#2F2E41"/>
<path d="M233.943 278.143H227.512L224.453 253.343H233.944L233.943 278.143Z" fill="#FFB6B6"/>
<path d="M235.583 284.375L214.848 284.374V284.112C214.848 281.972 215.698 279.92 217.212 278.406C218.725 276.893 220.778 276.043 222.918 276.043H222.919L235.584 276.043L235.583 284.375Z" fill="#2F2E41"/>
<path d="M215.057 122.856C215.057 122.856 205.662 143.087 214.15 183.808C222.638 224.529 222.709 269.234 222.709 269.234L235.688 269.445L242.979 173.199L246.796 268.087H259.583L270.853 174.699C270.853 174.699 278.269 132.998 261.731 125.532L215.057 122.856Z" fill="#2F2E41"/>
<path d="M260.031 51.4614L231.613 48.8423C222.701 55.3368 217.699 67.0013 218.726 79.0365C220.118 95.3544 219.647 117.811 208.476 127.567C208.476 127.567 238.925 151.595 265.973 128.799C265.973 128.799 256.724 104.026 263.074 94.1325C269.424 84.2393 271.715 56.4437 260.031 51.4614Z" fill="#E4E4E4"/>
<path d="M175.473 11.1402C175.385 11.9592 175.479 12.7874 175.747 13.5664C176.014 14.3453 176.449 15.0562 177.021 15.6488C177.594 16.2414 178.289 16.7015 179.058 16.9964C179.827 17.2914 180.651 17.4142 181.473 17.3561L218.995 52.367L225.72 42.1246L186.723 10.9308C186.534 9.55701 185.847 8.30031 184.793 7.3988C183.739 6.4973 182.391 6.01362 181.005 6.03943C179.618 6.06525 178.289 6.59875 177.269 7.53885C176.25 8.47896 175.61 9.76034 175.473 11.1402Z" fill="#FFB6B6"/>
<path d="M211.989 46.9584L220.89 37.8164C221.143 37.5563 221.45 37.3538 221.788 37.2227C222.127 37.0917 222.49 37.0351 222.852 37.0569C223.215 37.0787 223.568 37.1784 223.888 37.3491C224.209 37.5198 224.489 37.7575 224.709 38.0461L232.426 48.1588C233.75 49.4619 234.502 51.2366 234.519 53.0938C234.536 54.951 233.816 56.739 232.516 58.066C231.216 59.393 229.444 60.1506 227.586 60.1727C225.729 60.1949 223.938 59.4797 222.607 58.1841L212.321 50.7692C212.026 50.5568 211.781 50.2835 211.602 49.9678C211.423 49.6521 211.314 49.3015 211.282 48.9399C211.25 48.5782 211.297 48.214 211.419 47.8721C211.541 47.5302 211.735 47.2185 211.989 46.9584V46.9584Z" fill="#E4E4E4"/>
<path d="M314.873 96.3994C314.915 95.5768 314.775 94.7551 314.465 93.9922C314.154 93.2293 313.68 92.5438 313.076 91.9838C312.472 91.4239 311.753 91.0032 310.968 90.7514C310.184 90.4996 309.354 90.4228 308.537 90.5264L269.127 57.6539L262.981 68.254L303.652 97.2334C303.917 98.5946 304.673 99.8112 305.775 100.653C306.877 101.494 308.25 101.902 309.633 101.8C311.016 101.697 312.314 101.09 313.28 100.095C314.245 99.0997 314.812 97.7848 314.873 96.3994Z" fill="#FFB6B6"/>
<path d="M276.423 62.6649L268.044 72.2873C267.805 72.561 267.511 72.7802 267.18 72.9299C266.849 73.0796 266.49 73.1562 266.127 73.1546C265.764 73.1529 265.405 73.0731 265.076 72.9204C264.746 72.7678 264.454 72.546 264.218 72.2701L255.951 62.6017C254.557 61.3741 253.706 59.6439 253.586 57.7904C253.466 55.9369 254.086 54.1114 255.31 52.7142C256.534 51.317 258.262 50.4621 260.115 50.3369C261.969 50.2117 263.796 50.8265 265.197 52.0465L275.88 58.8784C276.186 59.0741 276.446 59.3334 276.642 59.6387C276.839 59.9439 276.967 60.2879 277.019 60.6472C277.07 61.0066 277.044 61.3728 276.941 61.721C276.838 62.0692 276.662 62.3911 276.423 62.6649Z" fill="#E4E4E4"/>
<path d="M318.877 110.299H303.309V104.871C303.309 102.807 304.129 100.827 305.589 99.3679C307.048 97.9083 309.028 97.0883 311.093 97.0883C313.158 97.0883 315.138 97.9083 316.597 99.3679C318.057 100.827 318.877 102.807 318.877 104.871L318.877 110.299ZM303.653 109.955H318.533V104.871C318.533 102.899 317.749 101.007 316.354 99.6116C314.958 98.2166 313.066 97.4329 311.093 97.4329C309.12 97.4329 307.228 98.2166 305.832 99.6116C304.437 101.007 303.653 102.899 303.653 104.871V109.955Z" fill="#3F3D56"/>
<path d="M326.575 109.553V107.431L286.982 108.492L285.729 162.224L291.589 169.462L326.575 109.553Z" fill="#3F3D56"/>
<path d="M333.584 108.806L290.669 109.782L291.588 169.462L333.003 164.999L333.584 108.806Z" fill="#F30E08"/>
<path d="M247.816 44.1191C257.086 44.1191 264.601 36.6054 264.601 27.3368C264.601 18.0682 257.086 10.5546 247.816 10.5546C238.546 10.5546 231.031 18.0682 231.031 27.3368C231.031 36.6054 238.546 44.1191 247.816 44.1191Z" fill="#FFB6B6"/>
<path d="M240.088 19.8573C245.895 25.5467 256 26.092 262.385 21.0605C264.157 27.172 264.351 33.6329 262.949 39.8397C261.547 46.0465 258.594 51.7966 254.366 56.553C257.918 57.8361 262.007 56.992 265.182 54.9467C268.357 52.9015 270.708 49.7787 272.482 46.4452C276.874 38.1933 277.974 28.1173 274.867 19.3009C271.759 10.4846 264.315 3.17404 255.27 0.806831C246.225 -1.56038 235.855 1.36372 229.812 8.49658C223.493 15.9553 222.47 26.8843 225.239 36.2589C228.008 45.6334 234.081 53.684 240.754 60.8279C237.549 52.5875 235.423 43.9672 234.431 35.1816C234.091 32.1727 233.893 29.0711 234.743 26.1649C235.593 23.2587 237.686 20.5517 240.602 19.7351" fill="#2F2E41"/>
<path d="M341.475 285.364H141.626C141.486 285.364 141.353 285.309 141.255 285.211C141.156 285.112 141.101 284.979 141.101 284.84C141.101 284.701 141.156 284.568 141.255 284.469C141.353 284.371 141.486 284.316 141.626 284.316H341.475C341.614 284.316 341.748 284.371 341.846 284.469C341.945 284.568 342 284.701 342 284.84C342 284.979 341.945 285.112 341.846 285.211C341.748 285.309 341.614 285.364 341.475 285.364Z" fill="#CACACA"/>
<path d="M85.5 285.364H0.52454C0.385423 285.364 0.252012 285.309 0.153642 285.211C0.0552715 285.112 0 284.979 0 284.84C0 284.701 0.0552715 284.568 0.153642 284.469C0.252012 284.371 0.385423 284.316 0.52454 284.316H85.5C85.6391 284.316 85.7725 284.371 85.8709 284.469C85.9693 284.568 86.0245 284.701 86.0245 284.84C86.0245 284.979 85.9693 285.112 85.8709 285.211C85.7725 285.309 85.6391 285.364 85.5 285.364Z" fill="#CACACA"/>
<path d="M310.484 239.838H294.916V234.409C294.916 232.345 295.736 230.366 297.196 228.906C298.655 227.446 300.635 226.626 302.7 226.626C304.765 226.626 306.745 227.446 308.204 228.906C309.664 230.366 310.484 232.345 310.484 234.409L310.484 239.838ZM295.26 239.493H310.14V234.409C310.14 232.437 309.356 230.545 307.961 229.15C306.565 227.755 304.673 226.971 302.7 226.971C300.727 226.971 298.834 227.755 297.439 229.15C296.044 230.545 295.26 232.437 295.26 234.409V239.493Z" fill="#CACACA"/>
</g>
<defs>
<clipPath id="clip0_38_708">
<rect width="342" height="299" fill="white"/>
</clipPath>
</defs>
</svg>
