<svg width="445" height="421" viewBox="0 0 445 421" fill="none" xmlns="http://www.w3.org/2000/svg">
<path d="M388.958 198.348C389.536 199.028 389.965 199.821 390.217 200.678C390.469 201.534 390.539 202.433 390.422 203.318C390.304 204.203 390.002 205.054 389.536 205.814C389.069 206.575 388.448 207.229 387.713 207.734L356.635 229.09L342.95 238.221C342.173 238.739 341.23 238.95 340.306 238.812C339.382 238.673 338.543 238.196 337.951 237.472C337.606 237.05 337.357 236.558 337.221 236.031C337.084 235.503 337.064 234.952 337.161 234.415C337.259 233.879 337.471 233.37 337.784 232.924C338.097 232.478 338.503 232.105 338.974 231.831L352.229 224.128L375.361 202.079L360.49 186.092L371.506 177.824L388.958 198.348Z" fill="#A0616A"/>
<path d="M315.877 399.425H308.275L303.76 336.583L323.037 336.031L315.877 399.425Z" fill="#A0616A"/>
<path d="M316.428 419.821C314.401 420.747 312.703 413.246 310.993 414.927C306.211 419.631 298.887 420.656 292.503 418.602L294.737 418.577C294.352 418.453 293.996 418.252 293.691 417.986C293.385 417.721 293.137 417.396 292.961 417.031C292.785 416.666 292.684 416.27 292.666 415.865C292.647 415.461 292.711 415.057 292.853 414.678C293.023 414.224 293.301 413.818 293.662 413.495C294.023 413.173 294.457 412.943 294.927 412.825L300.014 411.553L308 397.496L316.153 396.945C317.97 399.264 319.239 401.965 319.863 404.846C320.487 407.726 320.45 410.711 319.755 413.575C319.015 416.597 317.873 419.161 316.428 419.821Z" fill="#2F2E41"/>
<path d="M366.495 399.425H358.892L354.377 336.583L374.205 332.724L366.495 399.425Z" fill="#A0616A"/>
<path d="M367.045 419.821C365.018 420.747 363.32 413.246 361.61 414.927C356.828 419.631 349.504 420.656 343.12 418.602L345.355 418.577C344.969 418.453 344.613 418.252 344.308 417.986C344.003 417.721 343.754 417.396 343.578 417.031C343.402 416.667 343.302 416.27 343.283 415.865C343.264 415.461 343.328 415.057 343.47 414.678C343.64 414.224 343.918 413.818 344.279 413.496C344.64 413.173 345.075 412.943 345.544 412.825L350.631 411.553L358.617 397.496L367.321 396.393L367.54 396.753C369.223 399.467 370.308 402.509 370.723 405.676C371.137 408.843 370.872 412.063 369.945 415.119C369.221 417.44 368.236 419.277 367.045 419.821Z" fill="#2F2E41"/>
<path d="M375.114 179.245C368.123 180.219 363.283 184.051 361.312 191.695L348.462 167.948C347.7 166.439 347.507 164.706 347.918 163.066C348.329 161.426 349.317 159.989 350.7 159.019C352.169 157.989 353.975 157.56 355.749 157.82C357.523 158.08 359.131 159.009 360.243 160.417L375.114 179.245Z" fill="#F30E08"/>
<path d="M388.58 329.968C357.335 343.804 325.36 345.507 292.745 336.583C304.655 290.351 318.718 248.546 318.631 214.206L350.576 211.45L355.495 219.254C367.164 237.771 375.22 258.334 379.233 279.855L388.58 329.968Z" fill="#2F2E41"/>
<path d="M336.256 143.095C345.382 143.095 352.779 135.691 352.779 126.558C352.779 117.424 345.382 110.02 336.256 110.02C327.13 110.02 319.733 117.424 319.733 126.558C319.733 135.691 327.13 143.095 336.256 143.095Z" fill="#A0616A"/>
<path d="M354.431 155.774L334.053 156.876L330.748 138.685L347.271 135.929L354.431 155.774Z" fill="#A0616A"/>
<path d="M352.229 214.206L329.903 214.835L318.631 216.411C313.098 198.119 308.44 179.869 319.733 164.594L332.951 151.364L352.779 150.813L353.042 150.963C356.191 152.768 358.631 155.594 359.961 158.973C361.291 162.353 361.431 166.085 360.358 169.555C355.437 185.558 352.277 200.67 352.229 214.206Z" fill="#F30E08"/>
<path d="M318.08 265.472L316.696 284.415C316.621 285.43 316.183 286.383 315.462 287.1C314.741 287.817 313.786 288.25 312.771 288.317C312.187 288.356 311.601 288.273 311.05 288.073C310.5 287.872 309.997 287.559 309.574 287.154C309.151 286.748 308.818 286.259 308.594 285.717C308.371 285.175 308.262 284.593 308.276 284.007L308.717 265.472L322.487 213.104L323.037 181.131L338.459 180.58L337.358 217.514L318.08 265.472Z" fill="#A0616A"/>
<path d="M340.111 183.336C333.573 180.675 327.466 181.566 321.936 187.195L322.694 160.2C322.789 158.512 323.489 156.915 324.665 155.701C325.842 154.488 327.416 153.739 329.099 153.592C330.885 153.437 332.663 153.971 334.069 155.085C335.475 156.199 336.402 157.809 336.66 159.585L340.111 183.336Z" fill="#F30E08"/>
<path d="M371.23 200.149H320.559C332.379 168.821 336.191 139.676 320.559 114.706C320.827 107.206 330.438 100.704 337.902 101.422C346.718 102.271 358.563 108.754 360.215 117.462L371.23 200.149Z" fill="#2F2E41"/>
<path d="M209.743 100.045H207.431V36.6763C207.431 31.8599 206.483 27.0906 204.642 22.6409C202.8 18.1911 200.101 14.1479 196.698 10.7422C193.295 7.33649 189.256 4.63493 184.81 2.79178C180.364 0.948634 175.599 -1.44334e-05 170.786 1.64708e-10H36.6451C31.8328 -1.06351e-05 27.0676 0.948644 22.6216 2.7918C18.1756 4.63495 14.1359 7.3365 10.7331 10.7422C7.33027 14.1479 4.63101 18.1911 2.78943 22.6409C0.947843 27.0907 -5.31309e-06 31.8599 0 36.6763V384.324C-3.79506e-06 389.14 0.947843 393.909 2.78943 398.359C4.63101 402.809 7.33027 406.852 10.7331 410.258C14.1359 413.663 18.1756 416.365 22.6216 418.208C27.0676 420.051 31.8328 421 36.6451 421H170.786C175.599 421 180.364 420.051 184.81 418.208C189.256 416.365 193.295 413.663 196.698 410.258C200.101 406.852 202.8 402.809 204.642 398.359C206.483 393.909 207.431 389.14 207.431 384.324V145.152H209.743V100.045Z" fill="#3F3D56"/>
<path d="M172.265 9.54187H154.755C155.56 11.5177 155.868 13.6615 155.65 15.7842C155.433 17.907 154.697 19.9436 153.507 21.7147C152.318 23.4858 150.712 24.937 148.83 25.9405C146.949 26.944 144.849 27.4689 142.717 27.4691H65.8696C63.7375 27.4689 61.6382 26.944 59.7566 25.9405C57.8749 24.937 56.2687 23.4858 55.0795 21.7147C53.8902 19.9436 53.1544 17.907 52.9369 15.7842C52.7193 13.6615 53.0267 11.5177 53.8319 9.54187H37.4777C33.8839 9.54187 30.3253 10.2503 27.0051 11.6268C23.6849 13.0032 20.6681 15.0207 18.1269 17.564C15.5858 20.1074 13.57 23.1267 12.1947 26.4498C10.8194 29.7728 10.1116 33.3344 10.1116 36.9313V384.069C10.1116 387.665 10.8194 391.227 12.1947 394.55C13.57 397.873 15.5857 400.893 18.1269 403.436C20.6681 405.979 23.6849 407.997 27.0051 409.373C30.3253 410.75 33.8839 411.458 37.4777 411.458H172.265C175.859 411.458 179.417 410.75 182.737 409.373C186.058 407.997 189.075 405.979 191.616 403.436C194.157 400.893 196.173 397.873 197.548 394.55C198.923 391.227 199.631 387.665 199.631 384.069V36.9312C199.631 29.6671 196.748 22.7005 191.616 17.564C186.484 12.4275 179.523 9.54186 172.265 9.54187Z" fill="white"/>
<path d="M175.963 63.7672H33.7798V185.825H175.963V63.7672Z" fill="#E6E6E6"/>
<path d="M75.9722 211.278C81.718 211.278 86.3759 206.616 86.3759 200.865C86.3759 195.115 81.718 190.453 75.9722 190.453C70.2265 190.453 65.5686 195.115 65.5686 200.865C65.5686 206.616 70.2265 211.278 75.9722 211.278Z" fill="#F27F7E"/>
<path d="M81.1744 199.998H76.8395V195.659H75.1056V199.998H70.7708V201.733H75.1056V206.072H76.8395V201.733H81.1744V199.998Z" fill="white"/>
<path d="M130.88 211.278C136.626 211.278 141.284 206.616 141.284 200.865C141.284 195.115 136.626 190.453 130.88 190.453C125.135 190.453 120.477 195.115 120.477 200.865C120.477 206.616 125.135 211.278 130.88 211.278Z" fill="#F27F7E"/>
<path d="M136.082 201.733V199.998H125.679V201.733H136.082Z" fill="white"/>
<path d="M110.174 78.9896H98.9382C98.5431 78.9896 98.1642 79.1467 97.8848 79.4263C97.6054 79.7059 97.4485 80.0851 97.4485 80.4806V85.4166C97.4485 85.812 97.6054 86.1913 97.8848 86.4709C98.1642 86.7505 98.5431 86.9076 98.9382 86.9076H100.8V94.3034H108.312V86.9076H110.174C110.569 86.9076 110.948 86.7505 111.228 86.4709C111.507 86.1913 111.664 85.812 111.664 85.4166V80.4806C111.664 80.0851 111.507 79.7059 111.228 79.4263C110.948 79.1467 110.569 78.9896 110.174 78.9896Z" fill="#F30E08"/>
<path d="M121.428 124.164C114.547 114.087 111.029 102.087 111.379 89.8861C111.385 89.6046 111.293 89.3296 111.12 89.1078C110.947 88.886 110.702 88.7311 110.428 88.6693V86.5365H98.5608V88.6397H98.3973C98.2374 88.6399 98.0791 88.6716 97.9315 88.7331C97.7838 88.7945 97.6497 88.8845 97.5368 88.9978C97.4238 89.1111 97.3343 89.2455 97.2733 89.3935C97.2123 89.5414 97.181 89.6999 97.1812 89.86C97.1813 89.8896 97.1824 89.9191 97.1846 89.9487C98.1195 102.992 94.9626 114.689 87.714 125.039C87.2969 125.634 87.0838 126.348 87.1067 127.074L88.4042 167.246C88.4354 168.142 88.8112 168.992 89.453 169.617C90.0949 170.242 90.9533 170.596 91.8491 170.603H118.69C119.596 170.595 120.463 170.234 121.107 169.596C121.751 168.958 122.12 168.094 122.137 167.187L122.637 128.184C122.652 126.752 122.23 125.35 121.428 124.164Z" fill="#3F3D56"/>
<path opacity="0.2" d="M107.832 80.598C107.832 81.4511 107.493 82.2693 106.891 82.8725C106.288 83.4758 105.47 83.8147 104.618 83.8147C103.766 83.8147 102.948 83.4758 102.345 82.8725C101.743 82.2693 101.404 81.4511 101.404 80.598" fill="black"/>
<path d="M117.179 137.508H113.929C113.619 135.493 112.598 133.655 111.052 132.328C109.505 131 107.535 130.271 105.498 130.271C103.461 130.271 101.491 131 99.9441 132.328C98.3977 133.655 97.3771 135.493 97.0668 137.508H93.8163C93.4705 137.508 93.1288 137.583 92.8145 137.728C92.5003 137.872 92.2211 138.083 91.9959 138.346C91.7707 138.608 91.6049 138.917 91.51 139.249C91.415 139.582 91.393 139.932 91.4456 140.274L94.9761 163.241H115.248L119.537 140.351C119.602 140.005 119.589 139.648 119.501 139.306C119.413 138.965 119.25 138.647 119.025 138.376C118.8 138.104 118.518 137.886 118.199 137.736C117.88 137.586 117.532 137.508 117.179 137.508V137.508Z" fill="#F30E08"/>
<path d="M175.963 235.574H33.7798V357.632H175.963V235.574Z" fill="#E6E6E6"/>
<path d="M75.9722 383.084C81.718 383.084 86.3759 378.422 86.3759 372.672C86.3759 366.921 81.718 362.259 75.9722 362.259C70.2265 362.259 65.5686 366.921 65.5686 372.672C65.5686 378.422 70.2265 383.084 75.9722 383.084Z" fill="#F27F7E"/>
<path d="M81.1744 371.804H76.8395V367.466H75.1056V371.804H70.7708V373.54H75.1056V377.878H76.8395V373.54H81.1744V371.804Z" fill="white"/>
<path d="M130.88 383.084C136.626 383.084 141.284 378.422 141.284 372.672C141.284 366.921 136.626 362.259 130.88 362.259C125.135 362.259 120.477 366.921 120.477 372.672C120.477 378.422 125.135 383.084 130.88 383.084Z" fill="#F27F7E"/>
<path d="M136.082 373.54V371.804H125.679V373.54H136.082Z" fill="white"/>
<path d="M132.862 322.285L132.94 322.286C135.617 322.308 138.239 321.522 140.463 320.031C142.687 318.54 144.411 316.413 145.409 313.926C148.554 305.967 149.29 297.258 147.526 288.883C145.762 280.508 141.576 272.837 135.488 266.826C129.401 260.815 121.681 256.729 113.29 255.076C104.899 253.424 96.2076 254.278 88.2983 257.533C80.389 260.788 73.6112 266.3 68.8086 273.382C64.006 280.464 61.3909 288.803 61.289 297.362C61.187 305.92 63.6027 314.32 68.2352 321.514C72.8678 328.709 79.5124 334.381 87.3419 337.823C89.7753 338.902 92.4776 339.219 95.0943 338.733C97.7109 338.247 100.12 336.982 102.005 335.102C106.049 331.033 110.858 327.806 116.153 325.607C121.449 323.407 127.128 322.278 132.862 322.285Z" fill="white"/>
<path d="M110.469 309.079C118.419 309.079 124.864 302.628 124.864 294.671C124.864 286.714 118.419 280.264 110.469 280.264C102.519 280.264 96.074 286.714 96.074 294.671C96.074 302.628 102.519 309.079 110.469 309.079Z" fill="#F9A825"/>
</svg>
